<?xml version="1.0" encoding="iso-8859-1"?>
<!-- Generator: Adobe Illustrator 19.0.0, SVG Export Plug-In . SVG Version: 6.00 Build 0)  -->
<svg version="1.1" id="Capa_1" xmlns="http://www.w3.org/2000/svg" xmlns:xlink="http://www.w3.org/1999/xlink" x="0px" y="0px"
	 viewBox="0 0 512 512" style="enable-background:new 0 0 512 512;" xml:space="preserve">
<linearGradient id="SVGID_1_" gradientUnits="userSpaceOnUse" x1="0" y1="257.9987" x2="512.0002" y2="257.9987" gradientTransform="matrix(1 0 0 -1 0 513.9988)">
	<stop  offset="0" style="stop-color:#00F2FE"/>
	<stop  offset="0.021" style="stop-color:#03EFFE"/>
	<stop  offset="0.293" style="stop-color:#24D2FE"/>
	<stop  offset="0.554" style="stop-color:#3CBDFE"/>
	<stop  offset="0.796" style="stop-color:#4AB0FE"/>
	<stop  offset="1" style="stop-color:#4FACFE"/>
</linearGradient>
<path style="fill:url(#SVGID_1_);" d="M195.619,448.501c-15.438,0-30.008-5.812-41.268-16.515L6.16,289.938
	c-7.974-7.644-8.242-20.304-0.599-28.278c7.644-7.973,20.303-8.242,28.278-0.599l148.132,141.991
	c3.894,3.701,9.064,5.651,14.523,5.431c5.303-0.213,10.185-2.451,13.797-6.314L476.409,70.972c6.918-8.61,19.507-9.983,28.118-3.063
	c8.61,6.919,9.981,19.507,3.063,28.118L241.082,427.71c-0.224,0.277-0.454,0.549-0.691,0.814
	c-10.917,12.192-25.936,19.269-42.288,19.926C197.274,448.484,196.444,448.501,195.619,448.501z"/>
<g>
</g>
<g>
</g>
<g>
</g>
<g>
</g>
<g>
</g>
<g>
</g>
<g>
</g>
<g>
</g>
<g>
</g>
<g>
</g>
<g>
</g>
<g>
</g>
<g>
</g>
<g>
</g>
<g>
</g>
</svg>
