<svg viewBox="0 -40 512 512" xmlns="http://www.w3.org/2000/svg" xmlns:xlink="http://www.w3.org/1999/xlink"><linearGradient id="a" gradientUnits="userSpaceOnUse" x1="0" x2="512" y1="215.993" y2="215.993"><stop offset="0" stop-color="#00f2fe"/><stop offset=".0208" stop-color="#03effe"/><stop offset=".2931" stop-color="#24d2fe"/><stop offset=".5538" stop-color="#3cbdfe"/><stop offset=".7956" stop-color="#4ab0fe"/><stop offset="1" stop-color="#4facfe"/></linearGradient><path d="m472 271.984375v-135.410156c-17.289062 18.359375-31.957031 37.5-44.277344 57.761719 9.289063 13.28125 14.277344 29.035156 14.277344 45.648437 0 44.113281-35.886719 80-80 80s-80-35.886719-80-80c0-27.445313 14.058594-52.523437 36.371094-67.054687-13.867188-45.605469-31.1875-85.238282-62.371094-122.878907-31.1875 37.640625-48.503906 77.273438-62.371094 122.878907 22.308594 14.53125 36.371094 39.605468 36.371094 67.054687 0 44.113281-35.886719 80-80 80s-80-35.886719-80-80c0-16.613281 4.988281-32.367187 14.277344-45.648437-12.320313-20.261719-26.984375-39.402344-44.277344-57.761719v235.410156c0 11.027344 8.972656 20 20 20h392c11.027344 0 20-8.972656 20-20 0-11.046875 8.953125-20 20-20s20 8.953125 20 20c0 33.085937-26.914062 60-60 60h-392c-33.085938 0-60-26.914063-60-60v-282c0-7.8125 4.550781-14.910156 11.648438-18.171875 7.101562-3.265625 15.449218-2.09375 21.375 2.996094 40.027343 34.351562 70.496093 71.007812 93.144531 112.054687 4.390625 7.960938 2.863281 17.882813-3.726563 24.152344-8.023437 7.632813-12.441406 17.921875-12.441406 28.96875 0 22.054687 17.945312 40 40 40s40-17.945313 40-40c0-16.996094-10.78125-32.175781-26.828125-37.769531-9.980469-3.480469-15.527344-14.125-12.667969-24.300782 15.796875-56.191406 37.757813-115.886718 91.023438-171.734374.109375-.113282.230468-.210938.34375-.324219.113281-.113281.210937-.234375.324218-.34375.132813-.125.273438-.230469.40625-.351563.265626-.238281.53125-.46875.804688-.691406.25-.203125.5-.398438.757812-.585938.28125-.207031.570313-.410156.859376-.601562.265624-.175781.535156-.34375.808593-.503906.289063-.171875.585938-.339844.886719-.496094.285156-.148438.574219-.289062.863281-.425781.296875-.136719.597657-.269531.898438-.390625.300781-.125.605469-.238282.914062-.34375.300781-.105469.605469-.207032.910157-.296875.3125-.089844.628906-.175781.945312-.253907.308594-.074218.617188-.140624.925781-.203124.316407-.0625.636719-.113282.957031-.160157.316407-.046875.632813-.085937.953126-.1171872.3125-.0273438.628906-.0507813.945312-.0664063.328125-.015625.652344-.0234375.980469-.0234375.308593 0 .617187.0078125.921875.0234375.335937.0117187.671875.0390625 1.003906.0703125.300781.027344.597656.066406.894531.105469.339844.050781.679688.105469 1.015625.171875.292969.058594.582032.121094.871094.191406.335938.082031.667969.171875 1 .269531.289062.085938.574219.179688.855469.277344.324219.113281.644531.234375.960937.363281.289063.117188.574219.242188.859375.375.300781.140625.601563.289063.898438.445313.289062.152343.574219.308593.855469.476562s.558593.339844.832031.519531c.285156.1875.566406.386719.839843.589844.261719.191406.519532.386719.773438.59375.269531.21875.535156.449219.792969.6875.136719.121094.277343.226563.410156.351563.117187.109375.214844.234375.328125.34375.109375.113281.230469.210937.34375.328125 53.261719 55.84375 75.226562 115.539062 91.023438 171.734375 2.859374 10.175781-2.6875 20.816406-12.667969 24.296875-16.042969 5.597656-26.824219 20.773437-26.824219 37.769531 0 22.054687 17.945312 40 40 40s40-17.945313 40-40c0-11.046875-4.417969-21.335937-12.441406-28.96875-6.589844-6.269531-8.117188-16.191406-3.726563-24.152344 22.648438-41.050781 53.117188-77.703125 93.144531-112.054687 5.925782-5.085938 14.273438-6.261719 21.375-2.996094 7.097657 3.261719 11.648438 10.359375 11.648438 18.171875v182c0 11.046875-8.953125 20-20 20s-20-8.953125-20-20zm-241 70c0 13.808594 11.191406 25 25 25s25-11.191406 25-25c0-13.804687-11.191406-25-25-25s-25 11.195313-25 25zm-161 9c0 11.046875 8.953125 20 20 20s20-8.953125 20-20-8.953125-20-20-20-20 8.953125-20 20zm332 0c0 11.046875 8.953125 20 20 20s20-8.953125 20-20-8.953125-20-20-20-20 8.953125-20 20zm0 0" fill="url(#a)"/></svg>