<?xml version="1.0" encoding="iso-8859-1"?>
<!-- Generator: Adobe Illustrator 19.0.0, SVG Export Plug-In . SVG Version: 6.00 Build 0)  -->
<svg version="1.1" id="Capa_1" xmlns="http://www.w3.org/2000/svg" xmlns:xlink="http://www.w3.org/1999/xlink" x="0px" y="0px"
	 viewBox="0 0 512 512" style="enable-background:new 0 0 512 512;" xml:space="preserve">
<linearGradient id="SVGID_1_" gradientUnits="userSpaceOnUse" x1="0.0957" y1="257.2285" x2="513.0957" y2="257.2285" gradientTransform="matrix(0.9981 0 0 -0.9981 -0.0955 512.7271)">
	<stop  offset="0" style="stop-color:#00F2FE"/>
	<stop  offset="0.021" style="stop-color:#03EFFE"/>
	<stop  offset="0.293" style="stop-color:#24D2FE"/>
	<stop  offset="0.554" style="stop-color:#3CBDFE"/>
	<stop  offset="0.796" style="stop-color:#4AB0FE"/>
	<stop  offset="1" style="stop-color:#4FACFE"/>
</linearGradient>
<path style="fill:url(#SVGID_1_);" d="M437.166,75.333C388.907,27.076,324.746,0.499,256.499,0.499c-0.111,0-0.221,0.001-0.33,0.003
	c-0.223-0.002-0.445-0.003-0.668-0.003c-68.247,0-132.408,26.577-180.667,74.834C26.577,123.592,0,187.753,0,256
	s26.577,132.408,74.834,180.667c48.259,48.257,112.42,74.834,180.667,74.834c0.223,0,0.445-0.001,0.668-0.003
	c0.11,0.002,0.221,0.003,0.33,0.003c43.61,0,86.667-11.185,124.517-32.346c9.622-5.38,13.061-17.541,7.682-27.164
	c-5.379-9.623-17.542-13.061-27.164-7.682c-5.537,3.096-11.208,5.938-16.991,8.522c4.236-6.599,8.272-13.723,12.087-21.353
	c21.207-42.414,33.853-97.028,36.202-155.517h78.328c-3.118,33.814-14.138,66.36-32.334,95.122
	c-5.893,9.316-3.119,21.646,6.197,27.54c3.312,2.096,7.004,3.096,10.653,3.096c6.616,0,13.089-3.288,16.888-9.293
	C498.364,351.645,512,304.469,512,256C512,187.753,485.424,123.592,437.166,75.333z M235.54,116.972
	c-17.897-0.537-35.445-1.789-52.266-3.695c2.143-5.143,4.412-10.115,6.806-14.901c13.13-26.264,29.023-44.539,45.46-52.865V116.972z
	 M275.462,45.511c16.437,8.326,32.33,26.602,45.461,52.865c2.393,4.788,4.664,9.762,6.808,14.908
	c-16.815,1.903-34.361,3.154-52.269,3.69V45.511z M356.63,80.522c-3.8-7.598-7.818-14.694-12.035-21.27
	c21.89,9.84,41.853,23.23,59.151,39.431c-10.995,3.211-22.901,6.048-35.513,8.478C364.714,97.843,360.841,88.941,356.63,80.522z
	 M154.372,80.522c-4.209,8.419-8.08,17.317-11.601,26.631c-12.32-2.373-23.969-5.136-34.75-8.253
	c16.982-15.952,36.542-29.188,57.979-39.011C161.931,66.286,158.048,73.168,154.372,80.522z M130.821,145.542
	c-7.066,28.136-11.377,58.746-12.652,90.497H40.838c3.561-38.613,17.349-74.309,38.623-104.346
	C94.921,137.124,112.192,141.766,130.821,145.542z M118.169,275.961c1.262,31.407,5.492,61.697,12.423,89.58
	c-18.775,3.811-36.173,8.494-51.692,13.972c-20.955-29.872-34.533-65.279-38.063-103.552H118.169z M142.392,403.842
	c3.621,9.679,7.619,18.916,11.98,27.636c3.677,7.354,7.559,14.236,11.627,20.633c-21.79-9.984-41.641-23.496-58.816-39.801
	C118.118,409.095,129.912,406.264,142.392,403.842z M182.852,397.706c16.897-1.911,34.567-3.156,52.688-3.685v72.467
	c-16.437-8.326-32.33-26.602-45.461-52.865C187.529,408.524,185.118,403.211,182.852,397.706z M275.462,394.018
	c18.043,0.523,35.652,1.761,52.682,3.701c-2.265,5.5-4.673,10.809-7.221,15.905c-13.131,26.263-29.024,44.538-45.461,52.865
	L275.462,394.018L275.462,394.018z M235.54,354.087c-22.545,0.63-44.538,2.321-65.439,4.987
	c-6.624-25.59-10.705-53.722-11.979-83.114h77.418V354.087z M158.122,236.039c1.288-29.75,5.453-58.209,12.221-84.049
	c20.786,2.636,42.682,4.306,65.196,4.928v79.12H158.122z M275.462,156.919c22.527-0.621,44.419-2.289,65.198-4.922
	c6.767,25.838,10.932,54.295,12.22,84.043h-77.418V156.919z M380.182,145.549c18.95-3.841,36.493-8.58,52.158-14.136
	c21.386,30.096,35.248,65.893,38.821,104.627h-78.329C391.557,204.29,387.248,173.683,380.182,145.549z M340.907,359.05
	c-21.06-2.69-42.959-4.353-65.445-4.969v-78.119h77.418C351.606,305.343,347.528,333.467,340.907,359.05z"/>
<g>
</g>
<g>
</g>
<g>
</g>
<g>
</g>
<g>
</g>
<g>
</g>
<g>
</g>
<g>
</g>
<g>
</g>
<g>
</g>
<g>
</g>
<g>
</g>
<g>
</g>
<g>
</g>
<g>
</g>
</svg>
