<?xml version="1.0" encoding="iso-8859-1"?>
<!-- Generator: Adobe Illustrator 19.0.0, SVG Export Plug-In . SVG Version: 6.00 Build 0)  -->
<svg version="1.1" id="Capa_1" xmlns="http://www.w3.org/2000/svg" xmlns:xlink="http://www.w3.org/1999/xlink" x="0px" y="0px"
	 viewBox="0 0 512 512" style="enable-background:new 0 0 512 512;" xml:space="preserve">
<linearGradient id="SVGID_1_" gradientUnits="userSpaceOnUse" x1="0.5296" y1="257.2725" x2="512.5939" y2="257.2725" gradientTransform="matrix(0.9982 0 0 -0.9982 -0.0901 512.7996)">
	<stop  offset="0" style="stop-color:#00F2FE"/>
	<stop  offset="0.021" style="stop-color:#03EFFE"/>
	<stop  offset="0.293" style="stop-color:#24D2FE"/>
	<stop  offset="0.554" style="stop-color:#3CBDFE"/>
	<stop  offset="0.796" style="stop-color:#4AB0FE"/>
	<stop  offset="1" style="stop-color:#4FACFE"/>
</linearGradient>
<path style="fill:url(#SVGID_1_);" d="M234.071,471.132H60.391c-6.453,0-12.333-2.992-16.135-8.207
	c-3.803-5.218-4.85-11.736-2.874-17.883c19.732-61.346,79.908-104.191,146.336-104.191c30.909,0,60.591,9.308,85.838,26.916
	c9.043,6.307,21.485,4.09,27.795-4.953c6.306-9.043,4.089-21.486-4.954-27.794c-12.498-8.717-25.85-15.828-39.817-21.257
	c18.583-16.896,30.911-40.555,33.053-67.049c28.177-27.448,65.111-42.488,104.704-42.488c30.909,0,60.591,9.308,85.838,26.916
	c9.043,6.307,21.486,4.09,27.795-4.953c6.306-9.043,4.089-21.486-4.954-27.794c-12.498-8.717-25.85-15.828-39.817-21.257
	c20.499-18.638,33.387-45.506,33.387-75.328C496.586,45.673,450.913,0,394.774,0S292.961,45.673,292.961,101.812
	c0,29.701,12.784,56.473,33.139,75.102c-2.785,1.072-5.55,2.212-8.295,3.42c-12.492,5.497-24.241,12.245-35.162,20.183
	c-15.068-37.415-51.746-63.893-94.49-63.893c-56.14,0-101.812,45.673-101.812,101.812c0,29.614,12.71,56.316,32.96,74.938
	c-54.148,20.292-98.053,63.87-115.927,119.444c-5.928,18.431-2.788,37.976,8.616,53.623c11.402,15.645,29.043,24.618,48.401,24.618
	h173.68c11.026,0,19.963-8.938,19.963-19.963S245.096,471.132,234.071,471.132z M394.775,39.926
	c34.124,0,61.886,27.762,61.886,61.886s-27.762,61.886-61.886,61.886s-61.886-27.762-61.886-61.886S360.651,39.926,394.775,39.926z
	 M188.155,176.55c34.124,0,61.886,27.762,61.886,61.886s-27.762,61.886-61.886,61.886s-61.886-27.762-61.886-61.886
	S154.031,176.55,188.155,176.55z M507.83,353.934L409.031,491.94c-0.217,0.301-0.439,0.596-0.672,0.885
	c-8.97,11.161-22.311,18.11-36.599,19.062c-1.13,0.076-2.26,0.113-3.387,0.113c-13.116,0-25.863-5.058-35.414-14.149l-63.767-61.228
	c-7.952-7.636-8.209-20.274-0.572-28.226c7.633-7.952,20.272-8.211,28.226-0.573l63.703,61.168c3.092,2.944,6.699,3.184,8.555,3.057
	c1.805-0.12,5.172-0.793,7.859-3.909l98.4-137.447c6.417-8.965,18.887-11.03,27.853-4.611
	C512.183,332.5,514.247,344.97,507.83,353.934z"/>
<g>
</g>
<g>
</g>
<g>
</g>
<g>
</g>
<g>
</g>
<g>
</g>
<g>
</g>
<g>
</g>
<g>
</g>
<g>
</g>
<g>
</g>
<g>
</g>
<g>
</g>
<g>
</g>
<g>
</g>
</svg>
