<svg id="Capa_1" enable-background="new 0 0 512 512" height="512" viewBox="0 0 512 512" width="512" xmlns="http://www.w3.org/2000/svg"><g><g><path d="m386.133 41.613c-56.158 0-101.683 45.525-101.683 101.682v149.667h203.365v-149.666c0-56.158-45.524-101.683-101.682-101.683z" fill="#784033"/></g><g><path d="m386.133 41.613c-8.21 0-16.19.98-23.837 2.817 44.656 10.728 77.846 50.918 77.846 98.866v149.667h47.674v-149.667c-.001-56.158-45.525-101.683-101.683-101.683z" fill="#61362b"/></g><g><path d="m501.296 330.491h-230.326c-1.806 0-3.27-1.464-3.27-3.27 0-54.177 43.919-98.096 98.095-98.096h40.674c54.177 0 98.095 43.919 98.095 98.096.002 1.806-1.462 3.27-3.268 3.27z" fill="#eaaadd"/></g><g><path d="m406.47 229.126h-40.674c-.445 0-.888.011-1.332.017 53.562.714 96.764 44.347 96.764 98.078 0 1.806-1.464 3.27-3.27 3.27h43.338c1.806 0 3.27-1.464 3.27-3.27 0-54.176-43.919-98.095-98.096-98.095z" fill="#e490d0"/></g><g><path d="m386.133 279.808c-23.935 0-43.338-19.403-43.338-43.338v-59.982h86.676v59.982c0 23.935-19.403 43.338-43.338 43.338z" fill="#ffcbbe"/></g><g><path d="m406.845 176.488v59.983c0 20.02-13.578 36.86-32.025 41.836 3.608.973 7.398 1.501 11.313 1.501 23.935 0 43.338-19.403 43.338-43.338v-59.983h-22.626z" fill="#eaac9d"/></g><g><path d="m144.341 58.304h-36.948c-23.914 0-43.301 19.386-43.301 43.301v31.787h123.55v-31.787c0-23.914-19.386-43.301-43.301-43.301z" fill="#784033"/></g><g><path d="m144.72 58.304h-37.705c-.409 0-.814.019-1.22.031 23.139.648 41.702 19.595 41.702 42.891v32.165h40.146v-32.165c-.001-23.705-19.218-42.922-42.923-42.922z" fill="#61362b"/></g><g><path d="m241.03 330.491h-230.325c-1.806 0-3.27-1.464-3.27-3.27 0-54.177 43.919-98.096 98.096-98.096h40.674c54.177 0 98.096 43.919 98.096 98.096-.001 1.806-1.465 3.27-3.271 3.27z" fill="#5766cb"/></g><g><path d="m146.205 229.126h-40.675c-.445 0-.888.011-1.332.017 53.562.714 96.764 44.347 96.764 98.079 0 1.806-1.464 3.27-3.27 3.27h43.338c1.806 0 3.27-1.464 3.27-3.27 0-54.178-43.919-98.096-98.095-98.096z" fill="#3d4fc3"/></g><g><path d="m125.867 280.786c-23.935 0-43.338-19.403-43.338-43.338v-59.982h86.676v59.982c0 23.935-19.403 43.338-43.338 43.338z" fill="#e2a770"/></g><g><path d="m146.579 177.465v59.983c0 20.02-13.578 36.86-32.025 41.837 3.608.973 7.398 1.501 11.313 1.501 23.935 0 43.338-19.403 43.338-43.338v-59.983z" fill="#d5985c"/></g><g><path d="m199.768 141.543c-3.983-1.876-8.216-2.068-12.125.417v-18.729c0-13.686-11.095-24.781-24.781-24.781h-73.988c-13.686 0-24.781 11.095-24.781 24.781v18.729c-3.909-2.486-8.142-2.293-12.125-.417-6.776 3.191-10.264 10.036-4.866 21.498 4.205 8.929 12.085 17.008 18.565 18.634 3.608 16.144 13.267 30.518 27.291 39.944l17.952 12.066c9.045 6.079 20.87 6.079 29.914 0l17.953-12.067c14.025-9.427 23.683-23.8 27.291-39.944 6.481-1.625 14.36-9.704 18.565-18.634 5.398-11.46 1.911-18.306-4.865-21.497z" fill="#e2a770"/></g><g><path d="m199.768 141.543c-3.983-1.876-8.216-2.068-12.125.417v-18.729c0-13.686-11.095-24.781-24.781-24.781h-6.297v68.989c0 21.74-10.822 42.053-28.865 54.18l-17.371 11.676.584.393c9.044 6.078 20.866 6.078 29.91-.001l17.954-12.068c14.025-9.427 23.683-23.8 27.291-39.944 6.481-1.625 14.36-9.704 18.565-18.634 5.398-11.461 1.911-18.307-4.865-21.498z" fill="#d5985c"/></g><g><g><path d="m371.163 470.387h-230.326c-1.806 0-3.27-1.464-3.27-3.27 0-54.177 43.919-98.095 98.096-98.095h40.674c54.177 0 98.096 43.919 98.096 98.095 0 1.806-1.464 3.27-3.27 3.27z" fill="#b1e4f9"/></g><g><path d="m276.337 369.022h-40.674c-.445 0-.888.011-1.332.017 53.562.714 96.764 44.347 96.764 98.078 0 1.806-1.464 3.27-3.27 3.27h43.338c1.806 0 3.27-1.464 3.27-3.27 0-54.177-43.919-98.095-98.096-98.095z" fill="#90d8f9"/></g><g><g><path d="m274.474 197.223h-36.948c-23.914 0-43.301 19.386-43.301 43.301v31.787h123.549v-31.787c.001-23.915-19.385-43.301-43.3-43.301z" fill="#ffd064"/></g><g><path d="m274.853 197.223h-37.705c-.409 0-.814.019-1.22.031 23.139.648 41.702 19.595 41.702 42.891v32.165h40.146v-32.165c-.001-23.706-19.218-42.922-42.923-42.922z" fill="#ffc250"/></g><g><path d="m256 419.704c-23.935 0-43.338-19.403-43.338-43.338v-59.983h86.676v59.983c0 23.935-19.403 43.338-43.338 43.338z" fill="#c18678"/></g><g><path d="m276.712 316.384v59.983c0 20.02-13.578 36.86-32.025 41.837 3.608.973 7.398 1.501 11.313 1.501 23.935 0 43.338-19.403 43.338-43.338v-59.983z" fill="#b46e59"/></g><g><path d="m329.9 280.462c-3.983-1.876-8.216-2.068-12.125.417v-18.729c0-13.686-11.095-24.781-24.781-24.781h-73.987c-13.686 0-24.781 11.095-24.781 24.781v18.729c-3.909-2.486-8.142-2.293-12.125-.417-6.776 3.191-10.264 10.036-4.866 21.498 4.205 8.929 12.085 17.008 18.565 18.634 3.608 16.144 13.267 30.518 27.291 39.944l17.952 12.066c9.045 6.079 20.87 6.079 29.914 0l17.953-12.066c14.025-9.427 23.683-23.8 27.291-39.944 6.481-1.625 14.36-9.704 18.565-18.634 5.398-11.462 1.91-18.307-4.866-21.498z" fill="#c18678"/></g><g><path d="m329.9 280.462c-3.983-1.876-8.216-2.068-12.125.417v-18.729c0-13.686-11.095-24.781-24.781-24.781h-6.297v68.989c0 21.74-10.822 42.053-28.865 54.18l-17.371 11.676.584.393c9.044 6.078 20.866 6.078 29.91-.001l17.954-12.068c14.025-9.427 23.683-23.8 27.291-39.944 6.481-1.625 14.36-9.704 18.565-18.634 5.399-11.462 1.911-18.307-4.865-21.498z" fill="#b46e59"/></g></g></g><g><path d="m425.05 105.371h-78.191c-12.624 0-22.858 10.234-22.858 22.858v35.305c0 21.803 10.853 42.174 28.948 54.337l18.004 12.101c9.071 6.097 20.93 6.097 30.001 0l18.004-12.101c18.095-12.162 28.948-32.534 28.948-54.337v-35.305c.002-12.624-10.232-22.858-22.856-22.858z" fill="#ffcbbe"/></g><g><path d="m425.05 105.371h-2.427v52.744c0 21.802-10.853 42.174-28.948 54.337l-18.005 12.102c-2.361 1.587-4.913 2.751-7.553 3.512l2.838 1.907c9.071 6.097 20.929 6.098 30 .001 5.436-3.654 11.776-7.916 18.007-12.103 18.095-12.162 28.947-32.533 28.947-54.335 0-11.807 0-24.682 0-35.311-.001-12.626-10.235-22.854-22.859-22.854z" fill="#eaac9d"/></g><g><path d="m495.249 270.215v-126.92c0-60.167-48.949-109.117-109.117-109.117-50.258 0-92.68 34.156-105.294 80.472-18.623-2.754-37.972-2.383-56.413 1.13-4.033.768-6.68 4.66-5.912 8.694.75 4.058 4.759 6.692 8.694 5.912 16.565-3.154 33.955-3.528 50.709-1.134-.593 4.599-.901 9.286-.901 14.044v46.548c-.718-.031-1.438-.055-2.164-.055h-37.705c-24.366 0-44.741 17.397-49.368 40.421-3.634-1.559-7.355-2.911-11.14-4.051v-10.342c7.292-8.174 12.683-17.925 15.699-28.623 7.281-3.675 14.655-11.718 19.02-20.986 6.123-12.61 4.115-25.384-8.425-31.391-2.612-1.23-5.257-1.928-7.857-2.098v-31.494c0-27.767-22.59-50.357-50.357-50.357h-37.705c-27.767 0-50.357 22.59-50.357 50.357v31.494c-2.601.169-5.246.867-7.858 2.098-12.541 6.011-14.547 18.777-8.425 31.391 4.364 9.267 11.736 17.309 19.02 20.985 3.017 10.7 8.408 20.451 15.7 28.625v10.342c-44.4 13.335-75.093 54.349-75.093 101.061 0 5.902 4.802 10.704 10.704 10.704h87.559c10.004 27.546 26.999 51.908 49.466 70.888-11.182 16.867-17.596 36.998-17.596 58.304 0 5.902 4.802 10.703 10.704 10.703h230.326c5.902 0 10.704-4.802 10.704-10.704 0-46.708-30.695-87.725-75.095-101.06v-11.32c4.507-5.051 8.292-10.701 11.231-16.812h79.84c-5.691 14.095-13.448 27.222-23.138 39.134-2.59 3.185-2.109 7.867 1.076 10.459 1.378 1.121 3.038 1.667 4.686 1.667 2.161 0 4.303-.937 5.772-2.743 11.897-14.624 21.131-30.926 27.514-48.516h87.541c5.902 0 10.704-4.802 10.704-10.704.002-20.75-6.086-40.403-16.749-57.006zm-203.364-126.92c0-51.968 42.279-94.248 94.248-94.248s94.248 42.279 94.248 94.248v108.637c-11.938-11.747-26.731-20.732-43.475-25.764v-14.168c11.75-13.189 18.437-30.354 18.437-48.466v-35.306c0-16.702-13.589-30.291-30.292-30.291h-78.191c-16.703 0-30.292 13.589-30.292 30.291v35.306c0 18.296 6.822 35.627 18.794 48.868v13.75c-3.783 1.139-7.505 2.496-11.141 4.056-3.492-17.376-15.955-31.542-32.335-37.448v-49.465zm122.927 68.405-18.004 12.102c-6.592 4.432-15.113 4.432-21.707 0l-18.004-12.102c-16.068-10.8-25.661-28.805-25.661-48.166v-35.306c0-8.504 6.919-15.423 15.424-15.423h78.191c8.504 0 15.424 6.918 15.424 15.423v35.306c-.001 19.36-9.594 37.366-25.663 48.166zm-64.582 13.299 16.577 11.143c5.816 3.909 12.482 5.863 19.147 5.863s13.332-1.954 19.147-5.863l16.935-11.383v11.711c0 19.797-16.106 35.903-35.904 35.903-19.797 0-35.903-16.106-35.903-35.903v-11.471zm-35.446 88.266c-3.034 1.037-5.301 3.534-6.066 6.686-3.409 14.102-11.917 26.325-23.955 34.416l-17.953 12.066c-6.566 4.413-15.053 4.413-21.621 0l-17.952-12.066c-12.037-8.091-20.544-20.313-23.956-34.421-.764-3.149-3.033-5.646-6.064-6.68-3.774-1.29-9.882-7.003-13.259-14.474-4.085-9.036 2.831-13.869 6.278-11.639 2.28 1.475 5.192 1.549 7.567.242 2.378-1.306 3.856-3.803 3.856-6.516v-18.729c0-9.565 7.782-17.347 17.347-17.347h73.987c9.565 0 17.347 7.782 17.347 17.347v18.728c0 2.712 1.477 5.21 3.856 6.516 2.377 1.307 5.278 1.214 7.567-.242 4.514-1.895 11.603.836 6.278 11.639-3.493 7.418-9.484 13.184-13.257 14.474zm-94.687 54.217 16.799 11.292c5.802 3.9 12.454 5.85 19.104 5.85 6.651 0 13.303-1.95 19.105-5.85l16.799-11.291v8.883c0 19.797-16.106 35.903-35.903 35.903s-35.904-16.106-35.904-35.903zm17.05-162.824h37.705c17.739 0 32.479 13.083 35.08 30.106-4.925-3.057-10.728-4.829-16.939-4.829h-73.987c-6.211 0-12.014 1.771-16.939 4.829 2.601-17.024 17.342-30.106 35.08-30.106zm-147.183 23.907 16.799 11.291c5.803 3.901 12.453 5.851 19.104 5.851 6.65-.001 13.303-1.951 19.104-5.851l16.8-11.292v8.884c0 19.797-16.107 35.903-35.904 35.903s-35.903-16.106-35.903-35.903zm17.051-162.827h37.705c17.739 0 32.479 13.083 35.08 30.106-4.925-3.058-10.729-4.829-16.94-4.829h-73.986c-6.211 0-12.014 1.771-16.939 4.829 2.601-17.023 17.342-30.106 35.08-30.106zm-39.928 108.61c-3.775-1.29-9.767-7.058-13.26-14.474-1.688-3.585-2.301-6.632-1.727-8.582-.21-2.047 4.558-6.136 8.004-3.058 2.024 1.808 5.19 1.547 7.568.243 2.377-1.306 3.856-3.803 3.856-6.517v-18.729c0-9.565 7.782-17.347 17.347-17.347h73.986c9.565 0 17.347 7.782 17.347 17.347v18.729c0 2.713 1.478 5.211 3.856 6.517 2.378 1.304 5.69 1.716 7.568-.243 2.595-2.707 7.347.081 8.004 3.058.438 1.985-.039 4.997-1.727 8.582-3.493 7.417-9.485 13.184-13.253 14.472-3.038 1.036-5.306 3.535-6.07 6.687-3.409 14.102-11.917 26.324-23.955 34.416l-17.953 12.066c-6.566 4.413-15.052 4.415-21.62 0l-17.952-12.066c-12.038-8.092-20.546-20.315-23.957-34.418-.762-3.149-3.029-5.647-6.062-6.683zm8.202 67.375c2.18 26 24.024 46.497 50.578 46.497s48.397-20.494 50.579-46.492c3.535 1.251 6.991 2.729 10.344 4.411v25.5c-2.601.169-5.247.867-7.858 2.098-9.183 4.325-16.218 14.843-8.425 31.392 3.399 7.217 8.625 13.681 14.211 17.929h-169.754c1.685-36.955 25.693-69.119 60.325-81.335zm38.894 96.202h79.815c2.939 6.111 6.723 11.76 11.23 16.811v11.325c-19.146 5.753-35.743 16.663-48.431 30.962-18.837-16.058-33.398-36.288-42.614-59.098zm252.721 125.027h-221.807c1.689-36.943 25.742-69.158 60.399-81.358 2.626 25.548 24.273 45.544 50.504 45.544s47.88-19.997 50.504-45.548c34.672 12.197 58.714 44.385 60.4 81.362zm-39.621-139.896c5.585-4.247 10.811-10.712 14.21-17.93 7.794-16.548.758-27.066-8.425-31.391-2.613-1.23-5.257-1.928-7.858-2.098v-25.501c3.377-1.693 6.86-3.177 10.421-4.433 2.628 25.546 24.275 45.539 50.503 45.539 26.23 0 47.876-19.993 50.504-45.539 34.647 12.201 58.71 44.435 60.4 81.353z"/><circle cx="100.404" cy="147.533" r="8.643"/><circle cx="150.522" cy="147.533" r="8.643"/><path d="m106.454 190.698c4.647 4.633 11.723 7.29 19.413 7.29 7.691 0 14.767-2.657 19.414-7.291 2.907-2.899 2.914-7.607.015-10.514-2.899-2.909-7.607-2.914-10.514-.015-1.365 1.361-4.519 2.951-8.915 2.951-4.395 0-7.55-1.59-8.915-2.951-2.908-2.898-7.615-2.892-10.514.016s-2.891 7.615.016 10.514z"/><circle cx="230.537" cy="286.452" r="8.643"/><circle cx="280.655" cy="286.452" r="8.643"/><path d="m264.915 319.087c-1.366 1.361-4.52 2.951-8.915 2.951-4.396 0-7.55-1.589-8.915-2.951-2.907-2.898-7.614-2.892-10.514.016-2.899 2.908-2.891 7.615.016 10.514 4.646 4.632 11.723 7.289 19.413 7.289s14.765-2.657 19.412-7.289c2.908-2.898 2.916-7.606.016-10.514-2.898-2.908-7.605-2.917-10.513-.016z"/><circle cx="360.67" cy="146.556" r="8.643"/><circle cx="410.788" cy="146.556" r="8.643"/><path d="m395.047 179.191c-1.365 1.361-4.519 2.951-8.915 2.951-4.395 0-7.55-1.59-8.915-2.952-2.908-2.897-7.615-2.892-10.514.016s-2.891 7.615.016 10.514c4.647 4.633 11.723 7.29 19.413 7.29 7.691 0 14.767-2.657 19.414-7.291 2.907-2.899 2.914-7.607.015-10.514-2.899-2.909-7.607-2.913-10.514-.014z"/></g></g></svg>