<?xml version="1.0" encoding="iso-8859-1"?>
<!-- Generator: Adobe Illustrator 19.0.0, SVG Export Plug-In . SVG Version: 6.00 Build 0)  -->
<svg version="1.1" id="Capa_1" xmlns="http://www.w3.org/2000/svg" xmlns:xlink="http://www.w3.org/1999/xlink" x="0px" y="0px"
	 viewBox="0 0 512.001 512.001" style="enable-background:new 0 0 512.001 512.001;" xml:space="preserve">
<linearGradient id="SVGID_1_" gradientUnits="userSpaceOnUse" x1="0.5615" y1="257.274" x2="512.5629" y2="257.274" gradientTransform="matrix(0.9982 0 0 -0.9982 -0.0901 512.8015)">
	<stop  offset="0" style="stop-color:#00F2FE"/>
	<stop  offset="0.021" style="stop-color:#03EFFE"/>
	<stop  offset="0.293" style="stop-color:#24D2FE"/>
	<stop  offset="0.554" style="stop-color:#3CBDFE"/>
	<stop  offset="0.796" style="stop-color:#4AB0FE"/>
	<stop  offset="1" style="stop-color:#4FACFE"/>
</linearGradient>
<path style="fill:url(#SVGID_1_);" d="M237.035,471.133H61.052c-8.522,0-13.664-4.757-15.97-7.592
	c-3.982-4.896-5.523-11.269-4.228-17.487c20.718-99.514,108.495-172.206,209.861-174.655c1.754,0.068,3.515,0.102,5.284,0.102
	c1.773,0,3.537-0.034,5.293-0.102c51.318,1.233,100.594,20.361,139.276,54.179c8.302,7.257,20.913,6.41,28.169-1.891
	c7.257-8.301,6.41-20.912-1.891-28.169c-26.353-23.039-56.863-40.309-89.595-51.086c33.064-24.782,54.496-64.277,54.496-108.683
	C391.749,60.897,330.853,0,255.999,0s-135.75,60.897-135.75,135.75c0,44.423,21.449,83.93,54.534,108.711
	c-30.313,9.98-58.756,25.508-83.65,45.983c-45.648,37.548-77.386,89.92-89.367,147.471c-3.755,18.033,0.744,36.555,12.34,50.815
	c11.54,14.191,28.651,22.329,46.947,22.329h175.983c11.026,0,19.963-8.938,19.963-19.963
	C256.999,480.071,248.06,471.133,237.035,471.133z M160.177,135.751c0-52.838,42.986-95.824,95.824-95.824
	s95.823,42.986,95.823,95.824c0,51.215-40.386,93.173-90.983,95.703c-1.612-0.03-3.225-0.045-4.84-0.045
	c-1.609,0-3.217,0.016-4.823,0.046C200.571,228.933,160.177,186.971,160.177,135.751z M507.799,353.935l-98.8,138.006
	c-0.216,0.301-0.439,0.596-0.671,0.884c-8.969,11.162-22.308,18.111-36.596,19.063c-1.13,0.076-2.262,0.113-3.389,0.113
	c-13.116,0-25.863-5.057-35.415-14.149c-0.06-0.057-0.12-0.115-0.179-0.172l-63.704-62.167c-7.89-7.701-8.045-20.34-0.345-28.23
	c7.7-7.891,20.34-8.045,28.23-0.345l63.595,62.061c3.137,2.94,6.694,3.174,8.549,3.051c1.804-0.12,5.171-0.793,7.859-3.909
	l98.4-137.447c6.417-8.965,18.887-11.03,27.853-4.612C512.152,332.501,514.216,344.971,507.799,353.935z"/>
<g>
</g>
<g>
</g>
<g>
</g>
<g>
</g>
<g>
</g>
<g>
</g>
<g>
</g>
<g>
</g>
<g>
</g>
<g>
</g>
<g>
</g>
<g>
</g>
<g>
</g>
<g>
</g>
<g>
</g>
</svg>
