<?xml version="1.0" encoding="iso-8859-1"?>
<!-- Generator: Adobe Illustrator 19.0.0, SVG Export Plug-In . SVG Version: 6.00 Build 0)  -->
<svg version="1.1" id="Layer_1" xmlns="http://www.w3.org/2000/svg" xmlns:xlink="http://www.w3.org/1999/xlink" x="0px" y="0px"
	 viewBox="0 0 511.999 511.999" style="enable-background:new 0 0 511.999 511.999;" xml:space="preserve">
<path style="fill:#2E2E30;" d="M378.792,388.881c-0.102-1.502-0.345-3.497-0.582-4.984c-0.249-1.559-0.619-3.637-1.037-5.161
	c-0.834-3.039-1.99-7.106-3.316-9.964c-1.21-2.607-2.943-6.029-4.351-8.535c-0.847-1.508-2.179-3.397-3.157-4.823
	c-1.509-2.197-3.714-5.009-5.559-6.934c-1.329-1.387-3.052-3.285-4.452-4.6c-1.079-1.014-2.385-2.201-3.684-3.33
	c-2.288-12.004-11.229-23.686-26.883-33.043c-0.002-0.001-0.005-0.003-0.007-0.004c-0.459-1.457-0.915-2.934-1.291-4.189
	c-0.376-1.254-1.448-5.182-2.155-8.216c-0.68-2.925-2.488-10.692-3.658-20.904c-0.149-1.305-0.345-3.046-0.448-4.356
	c-0.203-2.548-0.433-5.951-0.575-8.503c-0.07-1.256-0.111-2.907-0.138-4.204c-0.003-0.152-0.006-0.304-0.008-0.456
	c-0.022-1.251-0.023-2.826-0.033-4.029l0.212-75c0,0.073-0.004,0.146-0.005,0.219c0.121-8.975-5.616-17.992-17.27-24.958
	c-23.504-14.051-62.158-14.44-86.339-0.872c-12.38,6.946-18.562,16.206-18.497,25.474c0-0.068-0.004-0.137-0.003-0.205l-0.212,75
	c-0.002,0.885-0.014,1.77-0.027,2.654c-0.006,0.369-0.014,0.725-0.021,1.069c-0.006,0.321-0.016,0.642-0.024,0.962
	c-0.069,2.515-0.163,4.116-0.164,4.139c-0.158,2.552-0.41,5.952-0.629,8.499c-0.113,1.309-0.32,3.049-0.476,4.354
	c-1.218,10.097-3.022,17.654-3.792,20.881c-0.675,2.83-1.815,6.923-2.21,8.21c-0.372,1.211-0.82,2.629-1.272,4.035
	c-15.684,9.244-24.726,20.893-27.083,32.921c-2.781,2.484-6.115,5.632-8.503,8.218c-2.047,2.216-4.517,5.412-6.225,7.899
	c-1.892,2.755-4.135,6.63-5.579,9.644c-1.376,2.874-2.783,6.901-3.791,9.925c-0.588,1.764-1.156,4.189-1.442,6.026
	c-0.465,2.981-0.997,6.984-1.057,10c-0.038,1.876-0.042,4.385,0.162,6.249c0.163,1.495,0.345,3.495,0.583,4.98
	c0.252,1.57,0.63,3.663,1.047,5.198c0.823,3.035,2.109,7.039,3.314,9.943c0.562,1.354,1.285,2.913,2.062,4.44
	c-0.65,1.97-1.309,4.122-1.674,5.905c-0.526,2.563-0.942,6.048-1.001,8.664c-0.055,2.483,0.159,5.803,0.511,8.261
	c0.332,2.326,1.048,5.393,1.763,7.631c0.855,2.677,2.336,6.137,3.594,8.648c1.066,2.127,2.819,4.787,4.128,6.773
	c1.207,1.832,3.031,4.137,4.53,5.738c2.504,2.677,6.046,6.053,8.781,8.493c1.821,1.624,4.484,3.514,6.48,4.917
	c1.767,1.242,4.216,2.762,6.053,3.897c2.149,1.329,5.095,2.984,7.382,4.057c2.218,1.041,5.155,2.478,7.407,3.446
	c2.217,0.952,5.196,2.178,7.483,2.949c2.32,0.782,5.4,1.859,7.744,2.566c2.445,0.738,5.732,1.634,8.212,2.245
	c6.807,1.68,12.087,2.542,16.728,3.256c1.835,0.282,8.498,1.238,17.21,1.714c2.607,0.142,6.086,0.254,8.697,0.28
	c2.613,0.026,6.098-0.071,8.71-0.104c2.622-0.033,6.112-0.287,8.726-0.494c2.585-0.205,6.02-0.612,8.599-0.877
	c2.609-0.268,6.074-0.784,8.647-1.289c2.497-0.491,5.839-1.093,8.321-1.652c2.562-0.577,5.96-1.428,8.49-2.136
	c4.721-1.321,10.89-3.509,15.475-5.242c2.408-0.91,5.533-2.349,7.856-3.458c2.1-1.002,4.821-2.498,6.885-3.575
	c2.272-1.186,5.166-3.018,7.283-4.463c1.717-1.172,3.989-2.763,5.617-4.055c1.934-1.536,4.396-3.726,6.244-5.363
	c1.967-1.743,4.351-4.338,5.99-6.392c1.995-2.499,4.572-5.933,6.1-8.743c1.177-2.165,2.593-5.136,3.566-7.4
	c0.552-1.285,1.111-3.071,1.506-4.413c0.704-2.391,1.264-5.68,1.649-8.143c0.202-1.288,0.212-3.035,0.303-4.336
	c0.172-2.473-0.062-5.811-0.509-8.25c-0.422-2.301-1.121-5.345-1.75-7.596c-0.08-0.287-0.177-0.594-0.28-0.908
	c0.347-0.67,0.685-1.355,1.007-2.052c1.333-2.888,2.91-6.846,3.78-9.904c0.51-1.793,1.085-4.214,1.445-6.043
	c0.293-1.482,0.601-3.475,0.73-4.98C378.918,396.741,379.146,394.074,378.792,388.881z"/>
<g>
	<path style="fill:#3E3D43;" d="M182.094,382.827c-0.549-0.375-1.096-0.75-1.625-1.131c-0.001,0-0.001,0.001-0.002,0.001
		C180.996,382.079,181.546,382.453,182.094,382.827z"/>
	<path style="fill:#3E3D43;" d="M310.481,469.355c-0.278,0.09-0.561,0.171-0.84,0.259c-0.001,0-0.002,0.001-0.002,0.001
		C309.918,469.528,310.202,469.445,310.481,469.355z"/>
	<path style="fill:#3E3D43;" d="M184.502,384.409c-0.456-0.288-0.93-0.57-1.373-0.863
		C183.572,383.839,184.045,384.121,184.502,384.409L184.502,384.409z"/>
	<path style="fill:#3E3D43;" d="M328.46,384.24c-0.307,0.197-0.599,0.4-0.912,0.596l0.001,0.001
		C327.863,384.64,328.153,384.438,328.46,384.24z"/>
	<path style="fill:#3E3D43;" d="M320.176,377.72c-0.602,0.415-1.238,0.818-1.867,1.224
		C318.938,378.538,319.574,378.135,320.176,377.72z"/>
	<path style="fill:#3E3D43;" d="M201.765,469.259c-0.002-0.001-0.003-0.001-0.005-0.002c-0.232-0.075-0.468-0.144-0.699-0.22
		C201.294,469.114,201.531,469.184,201.765,469.259z"/>
</g>
<path style="fill:#57565C;" d="M360.854,438.63c-2.684,2.822-6.418,6.446-9.369,8.987c-2.306,1.985-5.549,4.451-8.125,6.073
	c-2.377,1.496-5.536,3.512-7.975,4.905c-2.05,1.17-4.862,2.588-6.98,3.631c-4.231,2.085-10.126,4.321-14.535,5.993
	c-0.554,0.193-1.118,0.375-1.676,0.562c0.548-0.184,1.099-0.36,1.643-0.55c-0.77,0.269-1.539,0.536-2.308,0.805
	c-0.231,0.08-0.538,0.188-0.769,0.269c-0.231,0.08-0.538,0.188-0.769,0.269c-1.283,0.447-2.565,0.894-3.847,1.342
	c-0.246,0.086-0.502,0.157-0.748,0.24c-1.503,0.513-3.021,1.004-4.559,1.466c-0.251,0.075-0.495,0.158-0.747,0.232
	c-1.771,0.52-3.567,1.001-5.379,1.454c-0.476,0.119-0.957,0.23-1.436,0.345c-1.444,0.346-2.898,0.67-4.364,0.973
	c-0.469,0.097-0.935,0.199-1.406,0.292c-1.853,0.365-3.718,0.701-5.598,0.999c-0.326,0.051-0.654,0.093-0.981,0.143
	c-1.598,0.242-3.203,0.46-4.816,0.654c-0.539,0.065-1.079,0.129-1.62,0.188c-1.728,0.191-3.461,0.358-5.2,0.494
	c-0.206,0.017-0.41,0.039-0.615,0.054c-1.93,0.143-3.866,0.246-5.806,0.322c-0.52,0.021-1.04,0.033-1.56,0.049
	c-1.543,0.046-3.087,0.071-4.632,0.075c-0.473,0.001-0.946,0.008-1.419,0.005c-1.935-0.011-3.869-0.053-5.801-0.131
	c-0.375-0.015-0.749-0.041-1.124-0.059c-1.602-0.075-3.199-0.174-4.795-0.296c-0.543-0.042-1.087-0.083-1.629-0.13
	c-1.813-0.156-3.619-0.334-5.418-0.55c-0.124-0.015-0.251-0.025-0.375-0.041c-1.911-0.233-3.808-0.51-5.696-0.81
	c-0.515-0.082-1.027-0.17-1.541-0.257c-1.505-0.255-3-0.531-4.486-0.829c-0.432-0.087-0.866-0.166-1.296-0.256
	c-1.841-0.386-3.665-0.802-5.471-1.255c-0.383-0.096-0.76-0.202-1.141-0.301c-1.468-0.38-2.923-0.784-4.363-1.208
	c-0.494-0.145-0.987-0.29-1.479-0.442c-1.75-0.538-3.486-1.097-5.189-1.701c-0.014-0.005-0.028-0.009-0.043-0.014
	c-0.005-0.002-0.013-0.004-0.018-0.006c-0.002-0.001-0.004-0.001-0.005-0.002c-0.228-0.08-0.521-0.185-0.745-0.264
	c-0.115-0.041-0.269-0.095-0.385-0.136c-0.231-0.081-0.538-0.191-0.768-0.273c-0.231-0.082-0.538-0.191-0.768-0.273
	c-0.115-0.041-0.269-0.095-0.383-0.137c-0.231-0.082-0.538-0.191-0.768-0.273c-0.231-0.082-0.538-0.191-0.768-0.273
	c-0.115-0.041-0.269-0.095-0.385-0.137c-0.231-0.082-0.538-0.191-0.768-0.273c-0.231-0.082-0.538-0.191-0.768-0.273
	c-0.115-0.041-0.269-0.095-0.385-0.137c-0.23-0.081-0.538-0.191-0.768-0.273c0.629,0.224,1.267,0.434,1.903,0.649
	c-0.647-0.219-1.297-0.434-1.936-0.661c-2.625-1.015-6.142-2.324-8.731-3.425c-2.158-0.918-4.96-2.312-7.085-3.304
	c-2.432-1.135-5.559-2.896-7.843-4.305c-3.701-2.281-8.456-5.611-11.926-8.228c-2.046-1.543-4.582-3.848-6.432-5.621
	c-2.042-1.955-4.658-4.686-6.431-6.888c-1.879-2.332-4.13-5.466-5.905-8.171c-0.958,17.088,9.581,34.392,31.781,47.663
	c43.363,25.922,114.68,26.642,159.291,1.609c23.567-13.225,34.957-30.991,34.074-48.632c-0.515,0.809-0.995,1.535-1.397,2.134
	C365.401,433.226,362.936,436.441,360.854,438.63z"/>
<g>
	<path style="fill:#3E3D43;" d="M193.384,378.353c-0.311-0.206-0.6-0.42-0.905-0.628
		C192.784,377.933,193.073,378.147,193.384,378.353z"/>
	<path style="fill:#3E3D43;" d="M331.595,382.12c-0.321,0.229-0.623,0.463-0.951,0.689
		C330.972,382.582,331.275,382.348,331.595,382.12L331.595,382.12z"/>
	<path style="fill:#3E3D43;" d="M378.794,388.881c-0.102-1.502-0.345-3.497-0.582-4.984c-0.249-1.559-0.619-3.637-1.037-5.161
		c-0.835-3.039-1.991-7.106-3.316-9.964c-1.21-2.607-2.943-6.029-4.351-8.535c-0.847-1.508-2.179-3.397-3.158-4.822
		c-1.509-2.197-3.714-5.009-5.559-6.934c-1.329-1.387-3.053-3.285-4.452-4.601c-1.087-1.021-2.401-2.21-3.709-3.347
		c0.055,0.288,0.11,0.577,0.158,0.865c26.522,25.511,20.373,59.071-18.021,80.616c-44.724,25.096-116.22,24.374-159.693-1.613
		c-36.648-21.908-41.676-54.777-15.557-79.593c0.045-0.261,0.081-0.521,0.132-0.783c-2.784,2.485-6.117,5.633-8.507,8.221
		c-2.047,2.216-4.517,5.412-6.225,7.899c-1.891,2.755-4.135,6.63-5.579,9.644c-1.376,2.874-2.783,6.901-3.791,9.925
		c-0.588,1.764-1.156,4.189-1.442,6.026c-0.465,2.981-0.997,6.984-1.057,10c-0.038,1.876-0.042,4.385,0.162,6.249
		c0.163,1.495,0.345,3.495,0.583,4.98c0.252,1.57,0.63,3.663,1.047,5.198c0.823,3.034,2.109,7.039,3.314,9.943
		c0.562,1.354,1.286,2.913,2.063,4.441c-0.65,1.971-1.309,4.121-1.675,5.905c-0.526,2.563-0.942,6.048-1.001,8.664
		c-0.055,2.483,0.159,5.803,0.511,8.261c0.332,2.326,1.048,5.393,1.762,7.631c0.855,2.677,2.336,6.137,3.594,8.648
		c1.066,2.127,2.819,4.787,4.128,6.773c1.208,1.831,3.031,4.137,4.53,5.739c2.504,2.676,6.046,6.053,8.781,8.493
		c1.821,1.625,4.484,3.514,6.48,4.917c1.767,1.242,4.216,2.762,6.053,3.897c2.149,1.329,5.095,2.984,7.382,4.057
		c2.218,1.041,5.155,2.478,7.407,3.446c2.217,0.952,5.196,2.178,7.483,2.949c2.319,0.782,5.4,1.859,7.744,2.566
		c2.445,0.738,5.732,1.634,8.212,2.245c6.807,1.68,12.087,2.542,16.728,3.256c1.835,0.282,8.497,1.238,17.21,1.714
		c2.606,0.142,6.086,0.254,8.697,0.28c2.613,0.026,6.098-0.071,8.71-0.104c2.622-0.033,6.112-0.287,8.725-0.494
		c2.585-0.205,6.02-0.612,8.599-0.877c2.609-0.267,6.074-0.783,8.647-1.289c2.497-0.491,5.839-1.093,8.321-1.652
		c2.562-0.577,5.96-1.428,8.49-2.136c4.721-1.321,10.89-3.509,15.476-5.242c2.408-0.91,5.533-2.349,7.857-3.457
		c2.1-1.002,4.821-2.498,6.885-3.575c2.272-1.186,5.166-3.018,7.282-4.462c1.717-1.172,3.99-2.763,5.617-4.056
		c1.934-1.536,4.396-3.726,6.244-5.363c1.967-1.743,4.351-4.338,5.99-6.392c1.995-2.499,4.572-5.933,6.099-8.743
		c1.177-2.165,2.593-5.135,3.566-7.4c0.552-1.285,1.111-3.071,1.506-4.411c0.704-2.391,1.264-5.68,1.649-8.143
		c0.202-1.288,0.212-3.035,0.303-4.336c0.172-2.473-0.062-5.811-0.509-8.25c-0.422-2.3-1.121-5.344-1.75-7.596
		c-0.08-0.286-0.18-0.598-0.283-0.912c0.347-0.671,0.689-1.351,1.01-2.048c1.333-2.887,2.91-6.846,3.78-9.904
		c0.51-1.793,1.085-4.214,1.445-6.043c0.293-1.482,0.601-3.475,0.73-4.98C378.919,396.741,379.146,394.074,378.794,388.881z
		 M255.709,477.449c2.518,0.008,5.035-0.033,7.549-0.123C260.745,477.416,258.227,477.457,255.709,477.449z M255.63,477.448
		c-1.233-0.004-2.466-0.02-3.698-0.047C253.164,477.428,254.397,477.444,255.63,477.448z M309.64,469.615
		c0.279-0.088,0.562-0.17,0.84-0.259c-0.279,0.09-0.563,0.172-0.843,0.26c-0.289,0.091-0.582,0.18-0.874,0.27
		C309.057,469.795,309.35,469.707,309.64,469.615z M307.061,470.411c-0.575,0.17-1.158,0.328-1.738,0.492
		C305.902,470.739,306.486,470.581,307.061,470.411z M303.59,471.393c-0.56,0.152-1.127,0.292-1.692,0.437
		C302.462,471.684,303.03,471.544,303.59,471.393z M300.077,472.301c-0.641,0.158-1.287,0.303-1.932,0.453
		C298.789,472.604,299.437,472.458,300.077,472.301z M296.525,473.133c-0.69,0.154-1.385,0.295-2.079,0.44
		C295.139,473.428,295.835,473.288,296.525,473.133z M292.932,473.894c-0.644,0.129-1.293,0.246-1.938,0.367
		C291.64,474.14,292.289,474.024,292.932,473.894z M289.305,474.581c-0.773,0.138-1.553,0.263-2.33,0.391
		C287.752,474.844,288.53,474.72,289.305,474.581z M285.652,475.193c-0.761,0.119-1.527,0.226-2.291,0.335
		C284.125,475.419,284.891,475.313,285.652,475.193z M281.964,475.733c-0.635,0.087-1.275,0.161-1.912,0.24
		C280.689,475.894,281.329,475.82,281.964,475.733z M278.256,476.199c-0.717,0.083-1.437,0.153-2.155,0.227
		C276.82,476.352,277.54,476.282,278.256,476.199z M274.531,476.591c-0.966,0.092-1.936,0.17-2.906,0.248
		C272.595,476.761,273.564,476.683,274.531,476.591z M270.787,476.91c-0.822,0.062-1.646,0.11-2.469,0.161
		C269.141,477.019,269.966,476.971,270.787,476.91z M267.027,477.154c-0.622,0.034-1.245,0.056-1.868,0.086
		C265.781,477.212,266.405,477.19,267.027,477.154z M251.926,477.401c-1.256-0.028-2.512-0.069-3.766-0.121
		C249.414,477.332,250.67,477.372,251.926,477.401z M247.442,477.241c-1.017-0.046-2.032-0.095-3.046-0.158
		C245.41,477.146,246.426,477.195,247.442,477.241z M243.446,477.015c-0.936-0.063-1.872-0.124-2.807-0.201
		C241.573,476.891,242.509,476.954,243.446,477.015z M240.076,476.763c-1.06-0.09-2.118-0.183-3.174-0.289
		C237.958,476.581,239.016,476.674,240.076,476.763z M235.641,476.333c-0.821-0.089-1.644-0.174-2.462-0.275
		C233.998,476.157,234.82,476.244,235.641,476.333z M232.022,475.906c-0.848-0.109-1.697-0.215-2.542-0.335
		C230.324,475.69,231.173,475.797,232.022,475.906z M228.381,475.403c-0.861-0.127-1.723-0.254-2.58-0.394
		C226.659,475.149,227.52,475.274,228.381,475.403z M224.946,474.86c-0.932-0.157-1.864-0.314-2.791-0.486
		C223.081,474.545,224.013,474.703,224.946,474.86z M220.969,474.143c-0.811-0.156-1.622-0.308-2.427-0.475
		C219.347,473.835,220.159,473.987,220.969,474.143z M217.067,473.347c-0.702-0.152-1.407-0.299-2.105-0.459
		C215.66,473.048,216.364,473.194,217.067,473.347z M213.501,472.536c-0.695-0.166-1.392-0.327-2.082-0.502
		C212.11,472.209,212.808,472.37,213.501,472.536z M209.955,471.647c-0.679-0.179-1.36-0.352-2.034-0.539
		C208.595,471.294,209.276,471.468,209.955,471.647z M206.531,470.706c-0.69-0.197-1.383-0.392-2.068-0.598
		C205.149,470.315,205.841,470.509,206.531,470.706z M203.127,469.687c-0.455-0.142-0.909-0.283-1.361-0.428
		c-0.234-0.075-0.471-0.145-0.704-0.222c0.231,0.076,0.467,0.145,0.699,0.22C202.214,469.403,202.67,469.545,203.127,469.687z
		 M334.411,477.217c-44.611,25.033-115.929,24.312-159.291-1.609c-22.201-13.271-32.739-30.575-31.781-47.663
		c1.774,2.706,4.026,5.839,5.905,8.171c1.773,2.202,4.39,4.933,6.431,6.888c1.85,1.773,4.386,4.078,6.432,5.621
		c3.47,2.617,8.225,5.947,11.926,8.228c2.285,1.409,5.41,3.17,7.843,4.305c2.125,0.992,4.928,2.385,7.085,3.304
		c2.589,1.101,6.107,2.411,8.731,3.425c0.641,0.228,1.29,0.442,1.936,0.661c-0.635-0.215-1.274-0.426-1.903-0.649
		c0.231,0.082,0.538,0.191,0.768,0.273c0.115,0.041,0.269,0.095,0.385,0.137c0.23,0.082,0.538,0.191,0.768,0.273
		c0.23,0.082,0.538,0.191,0.768,0.273c0.115,0.041,0.269,0.095,0.385,0.137c0.23,0.081,0.538,0.191,0.768,0.273
		c0.23,0.081,0.538,0.191,0.768,0.273c0.115,0.041,0.269,0.096,0.383,0.137c0.231,0.082,0.538,0.191,0.768,0.273
		c0.231,0.082,0.538,0.191,0.768,0.273c0.115,0.041,0.269,0.095,0.385,0.136c0.224,0.079,0.517,0.184,0.745,0.264
		c0.001,0,0.004,0.001,0.005,0.002c0.005,0.002,0.013,0.004,0.018,0.006c0.014,0.005,0.028,0.009,0.043,0.014
		c1.703,0.604,3.439,1.164,5.189,1.701c0.491,0.15,0.984,0.296,1.479,0.442c1.441,0.424,2.895,0.828,4.363,1.208
		c0.381,0.099,0.758,0.205,1.141,0.301c1.806,0.451,3.63,0.869,5.471,1.255c0.429,0.09,0.864,0.17,1.296,0.256
		c1.486,0.298,2.981,0.574,4.486,0.829c0.513,0.087,1.025,0.176,1.541,0.257c1.888,0.3,3.786,0.577,5.696,0.81
		c0.124,0.015,0.251,0.026,0.375,0.041c1.797,0.215,3.605,0.394,5.418,0.55c0.542,0.047,1.086,0.089,1.629,0.13
		c1.594,0.121,3.193,0.22,4.795,0.296c0.375,0.018,0.749,0.043,1.124,0.059c1.931,0.078,3.866,0.12,5.801,0.131
		c0.473,0.003,0.946-0.004,1.419-0.005c1.544-0.004,3.089-0.029,4.632-0.075c0.52-0.016,1.041-0.028,1.56-0.049
		c1.939-0.076,3.877-0.178,5.806-0.322c0.206-0.016,0.411-0.038,0.615-0.054c1.74-0.136,3.473-0.304,5.2-0.494
		c0.541-0.06,1.08-0.123,1.62-0.188c1.612-0.194,3.218-0.412,4.816-0.654c0.327-0.05,0.655-0.091,0.981-0.143
		c1.88-0.298,3.746-0.634,5.598-0.999c0.471-0.093,0.937-0.194,1.406-0.292c1.466-0.303,2.92-0.628,4.364-0.973
		c0.479-0.115,0.959-0.226,1.436-0.345c1.812-0.453,3.608-0.934,5.379-1.454c0.251-0.074,0.496-0.157,0.747-0.232
		c1.538-0.462,3.056-0.953,4.559-1.466c0.247-0.085,0.503-0.155,0.748-0.24c1.282-0.447,2.565-0.894,3.847-1.342
		c0.231-0.08,0.538-0.188,0.769-0.269c0.231-0.08,0.538-0.188,0.769-0.269c0.77-0.269,1.539-0.537,2.308-0.805
		c-0.543,0.189-1.095,0.367-1.643,0.55c0.559-0.187,1.122-0.369,1.676-0.562c4.41-1.674,10.305-3.909,14.535-5.993
		c2.117-1.043,4.93-2.461,6.98-3.631c2.439-1.392,5.599-3.407,7.975-4.905c2.576-1.622,5.819-4.088,8.125-6.073
		c2.952-2.541,6.685-6.165,9.369-8.987c2.082-2.189,4.547-5.404,6.234-7.912c0.402-0.599,0.882-1.325,1.397-2.134
		C369.368,446.226,357.978,463.992,334.411,477.217z"/>
</g>
<path style="fill:#57565C;" d="M353.249,346.856l-0.047,16.684c0,0.117-0.015,0.233-0.016,0.35c-0.006,0.47-0.037,0.94-0.063,1.411
	c-0.025,0.437-0.044,0.874-0.086,1.31c-0.045,0.47-0.116,0.939-0.182,1.41c-0.061,0.435-0.115,0.869-0.193,1.303
	c-0.085,0.47-0.195,0.938-0.301,1.407c-0.097,0.432-0.186,0.863-0.3,1.294c-0.124,0.468-0.275,0.933-0.419,1.399
	c-0.133,0.429-0.257,0.859-0.408,1.286c-0.163,0.465-0.354,0.927-0.538,1.39c-0.168,0.424-0.328,0.849-0.513,1.273
	c-0.204,0.463-0.436,0.922-0.659,1.381c-0.204,0.418-0.397,0.838-0.618,1.254c-0.243,0.46-0.517,0.914-0.782,1.371
	c-0.238,0.411-0.465,0.823-0.72,1.231c-0.285,0.457-0.601,0.907-0.906,1.359c-0.273,0.402-0.532,0.807-0.82,1.206
	c-0.326,0.451-0.684,0.897-1.031,1.343c-0.306,0.394-0.599,0.79-0.921,1.18c-0.218,0.264-0.456,0.525-0.681,0.787
	c-0.115,0.133-0.235,0.264-0.352,0.397c0,0-0.001,0-0.001-0.001c-1.287,1.467-2.688,2.909-4.213,4.318
	c0.001,0.001,0.002,0.002,0.003,0.003c-0.255,0.236-0.522,0.468-0.784,0.703c-0.392,0.351-0.768,0.706-1.175,1.053
	c-0.521,0.444-1.08,0.879-1.626,1.317c-0.41,0.328-0.8,0.661-1.224,0.984c-0.592,0.452-1.221,0.894-1.84,1.339
	c-0.414,0.298-0.809,0.601-1.235,0.894c-0.704,0.485-1.447,0.957-2.184,1.431c-0.375,0.241-0.73,0.49-1.115,0.728
	c-1.137,0.707-2.311,1.401-3.522,2.081c-38.461,21.582-99.945,20.96-137.329-1.388c-1.159-0.693-2.28-1.399-3.366-2.116
	c-0.356-0.235-0.685-0.48-1.034-0.718c-0.713-0.487-1.431-0.973-2.111-1.47c-0.402-0.295-0.775-0.599-1.166-0.897
	c-0.591-0.451-1.192-0.899-1.758-1.356c-0.406-0.329-0.781-0.668-1.172-1.001c-0.514-0.437-1.041-0.871-1.531-1.314
	c-0.273-0.246-0.522-0.497-0.787-0.746l0.001-0.001c-1.52-1.422-2.93-2.871-4.211-4.349c-0.002,0.001-0.004,0.003-0.006,0.004
	c-0.114-0.131-0.213-0.264-0.325-0.396c-0.126-0.148-0.244-0.299-0.368-0.447c-0.37-0.444-0.749-0.887-1.098-1.335
	c-0.301-0.388-0.574-0.782-0.859-1.172c-0.326-0.447-0.661-0.891-0.967-1.342c-0.27-0.398-0.511-0.8-0.764-1.201
	c-0.284-0.449-0.578-0.899-0.841-1.351c-0.236-0.405-0.445-0.814-0.665-1.221c-0.245-0.453-0.497-0.906-0.722-1.363
	c-0.203-0.412-0.378-0.826-0.564-1.241c-0.205-0.457-0.417-0.912-0.602-1.371c-0.168-0.418-0.31-0.837-0.462-1.256
	c-0.166-0.46-0.339-0.917-0.485-1.378c-0.134-0.422-0.243-0.846-0.36-1.271c-0.127-0.461-0.26-0.919-0.368-1.381
	c-0.099-0.426-0.174-0.854-0.257-1.281c-0.089-0.462-0.183-0.923-0.252-1.384c-0.064-0.428-0.106-0.857-0.153-1.286
	c-0.051-0.462-0.107-0.925-0.138-1.388c-0.029-0.43-0.037-0.86-0.048-1.291c-0.009-0.343-0.04-0.684-0.039-1.026l0.047-16.684
	c-0.001,0.342,0.029,0.684,0.039,1.026c-0.062-2.181,0.087-4.36,0.46-6.532c-26.119,24.816-21.091,57.685,15.557,79.593
	c43.472,25.987,114.968,26.71,159.693,1.613c38.394-21.544,44.543-55.104,18.021-80.616c0.318,1.931,0.473,3.868,0.446,5.806
	C353.235,347.089,353.248,346.973,353.249,346.856z"/>
<g>
	<path style="fill:#3E3D43;" d="M159.395,351.305c0.069,0.463,0.163,0.924,0.252,1.385
		C159.558,352.229,159.464,351.767,159.395,351.305z"/>
	<path style="fill:#3E3D43;" d="M159.105,348.632c0.031,0.463,0.087,0.925,0.138,1.388
		C159.191,349.557,159.136,349.094,159.105,348.632z"/>
	<path style="fill:#3E3D43;" d="M352.709,352.639c0.078-0.434,0.133-0.868,0.193-1.303
		C352.842,351.77,352.787,352.205,352.709,352.639z"/>
	<path style="fill:#3E3D43;" d="M352.409,354.046c-0.088,0.391-0.17,0.782-0.272,1.17c0.001,0.005,0.002,0.009,0.004,0.015
		C352.244,354.837,352.32,354.441,352.409,354.046z"/>
	<path style="fill:#3E3D43;" d="M353.084,349.926c0.042-0.437,0.062-0.874,0.086-1.31
		C353.146,349.054,353.126,349.49,353.084,349.926z"/>
	<path style="fill:#3E3D43;" d="M160.082,354.636c-0.056-0.223-0.125-0.443-0.178-0.666c0.053,0.23,0.113,0.46,0.171,0.69
		C160.078,354.653,160.08,354.645,160.082,354.636z"/>
	<path style="fill:#3E3D43;" d="M159.056,347.341c0.013,0.43,0.02,0.861,0.049,1.291c0.031,0.463,0.087,0.925,0.138,1.388
		c0.047,0.428,0.089,0.858,0.153,1.285c0.069,0.463,0.163,0.924,0.252,1.385c0.083,0.427,0.158,0.855,0.257,1.28
		c0.052,0.223,0.12,0.443,0.178,0.666c0.061,0.239,0.124,0.478,0.191,0.717c0.117,0.423,0.227,0.847,0.36,1.27
		c0.146,0.461,0.319,0.919,0.485,1.378c0.152,0.419,0.294,0.839,0.462,1.256c0.185,0.459,0.398,0.915,0.603,1.372
		c0.186,0.414,0.362,0.828,0.563,1.239c0.225,0.457,0.478,0.91,0.722,1.365c0.219,0.408,0.428,0.816,0.663,1.22
		c0.263,0.452,0.557,0.902,0.841,1.351c0.253,0.4,0.494,0.802,0.764,1.201c0.305,0.45,0.641,0.895,0.967,1.342
		c0.285,0.391,0.558,0.785,0.859,1.172c0.348,0.448,0.726,0.889,1.095,1.333c0.316,0.379,0.618,0.763,0.949,1.139
		c0.392,0.445,0.816,0.883,1.229,1.323c0.345,0.368,0.675,0.739,1.035,1.102c0.439,0.444,0.913,0.88,1.375,1.319
		c0.37,0.351,0.724,0.706,1.11,1.054c0.493,0.446,1.022,0.882,1.539,1.321c0.39,0.331,0.763,0.668,1.166,0.995
		c0.564,0.459,1.166,0.906,1.757,1.356c0.391,0.298,0.764,0.602,1.166,0.897c0.089,0.065,0.186,0.127,0.276,0.192
		c0.068,0.049,0.142,0.097,0.211,0.147c0.529,0.38,1.076,0.757,1.625,1.131c0.349,0.238,0.678,0.483,1.034,0.718
		c0.443,0.293,0.918,0.575,1.373,0.863c0.66,0.419,1.306,0.842,1.993,1.253c37.384,22.348,98.868,22.97,137.329,1.388
		c1.212-0.68,2.385-1.374,3.522-2.081c0.07-0.044,0.134-0.09,0.203-0.133c0.312-0.195,0.605-0.398,0.912-0.596
		c0.737-0.474,1.481-0.946,2.184-1.431c0.328-0.226,0.63-0.461,0.951-0.689c0.093-0.066,0.184-0.134,0.276-0.2
		c0.005-0.004,0.011-0.008,0.018-0.013c0.615-0.442,1.241-0.881,1.83-1.331c0.426-0.327,0.821-0.662,1.234-0.993
		c0.543-0.435,1.098-0.867,1.617-1.309c0.408-0.347,0.783-0.702,1.175-1.053c0.487-0.436,0.986-0.868,1.45-1.31
		c0.383-0.365,0.736-0.738,1.103-1.108c0.436-0.438,0.883-0.871,1.297-1.314c0.355-0.379,0.679-0.767,1.019-1.15
		c0.39-0.441,0.79-0.88,1.159-1.325c0.323-0.39,0.615-0.787,0.921-1.18c0.348-0.447,0.705-0.892,1.031-1.343
		c0.288-0.399,0.549-0.804,0.82-1.206c0.306-0.452,0.622-0.904,0.907-1.359c0.255-0.408,0.482-0.82,0.72-1.231
		c0.264-0.457,0.538-0.912,0.782-1.371c0.22-0.416,0.414-0.835,0.618-1.253c0.224-0.46,0.456-0.919,0.659-1.381
		c0.186-0.422,0.345-0.847,0.513-1.273c0.184-0.463,0.374-0.925,0.538-1.39c0.15-0.427,0.275-0.857,0.408-1.286
		c0.144-0.466,0.295-0.931,0.419-1.399c0.01-0.041,0.018-0.083,0.028-0.123c0.101-0.39,0.184-0.781,0.272-1.17
		c0.106-0.469,0.215-0.937,0.3-1.407c0.078-0.434,0.133-0.868,0.193-1.303c0.066-0.469,0.136-0.939,0.181-1.41
		c0.042-0.437,0.062-0.874,0.086-1.31c0.026-0.47,0.056-0.94,0.063-1.411c0.026-1.937-0.13-3.874-0.446-5.806
		c-0.047-0.288-0.102-0.577-0.158-0.865c-2.294-11.997-11.212-23.674-26.857-33.027c-0.002-0.001-0.005-0.003-0.007-0.004
		c0.39,1.238,0.782,2.462,1.127,3.52c0.385,1.175,0.95,2.725,1.374,3.887c1.43,3.915,2.917,7.39,2.931,7.422
		c0.481,1.1,1.097,2.579,1.606,3.667c0.48,1.026,1.105,2.399,1.598,3.419c0.507,1.051,1.201,2.445,1.733,3.484
		c0.076,0.147,0.14,0.297,0.213,0.446c0.106,0.213,0.207,0.427,0.307,0.642c0.236,0.503,0.457,1.007,0.665,1.513
		c0.078,0.191,0.162,0.382,0.236,0.575c0.264,0.682,0.509,1.367,0.722,2.053c0.03,0.097,0.053,0.195,0.083,0.293
		c0.179,0.595,0.336,1.191,0.476,1.789c0.05,0.216,0.095,0.433,0.141,0.65c0.108,0.509,0.2,1.019,0.279,1.53
		c0.031,0.204,0.067,0.406,0.094,0.609c0.092,0.695,0.166,1.391,0.207,2.087c0.003,0.049,0.002,0.099,0.004,0.148
		c0.028,0.528,0.046,1.054,0.045,1.582c0,0.1-0.013,0.201-0.014,0.302c-0.005,0.403-0.031,0.807-0.054,1.21
		c-0.021,0.376-0.038,0.752-0.074,1.127c-0.039,0.404-0.099,0.808-0.156,1.211c-0.052,0.374-0.099,0.748-0.166,1.12
		c-0.073,0.403-0.167,0.806-0.258,1.208c-0.084,0.372-0.161,0.744-0.259,1.115c-0.107,0.402-0.236,0.801-0.359,1.203
		c-0.114,0.369-0.22,0.737-0.35,1.104c-0.141,0.401-0.305,0.799-0.464,1.198c-0.144,0.364-0.281,0.728-0.44,1.09
		c-0.174,0.397-0.374,0.791-0.566,1.186c-0.176,0.361-0.342,0.721-0.532,1.079c-0.209,0.395-0.444,0.786-0.672,1.178
		c-0.205,0.353-0.4,0.707-0.619,1.058c-0.245,0.392-0.515,0.778-0.778,1.167c-0.234,0.347-0.458,0.695-0.706,1.039
		c-0.28,0.388-0.587,0.769-0.885,1.152c-0.263,0.339-0.515,0.679-0.792,1.016c-0.317,0.383-0.661,0.762-0.998,1.141
		c-0.29,0.329-0.568,0.66-0.874,0.986c-0.356,0.381-0.741,0.754-1.116,1.131c-0.316,0.317-0.619,0.637-0.948,0.951
		c-0.398,0.379-0.827,0.751-1.245,1.125c-0.337,0.302-0.661,0.608-1.011,0.907c-0.447,0.381-0.926,0.753-1.394,1.128
		c-0.353,0.283-0.691,0.569-1.055,0.849c-0.505,0.387-1.042,0.762-1.568,1.141c-0.36,0.259-0.704,0.523-1.075,0.779
		c-0.602,0.415-1.238,0.818-1.867,1.224c-0.325,0.21-0.634,0.425-0.966,0.632c-0.978,0.608-1.986,1.205-3.028,1.789
		c-33.058,18.55-85.904,18.016-118.036-1.192c-0.996-0.596-1.96-1.202-2.892-1.818c-0.311-0.206-0.6-0.42-0.905-0.628
		c-0.607-0.415-1.219-0.828-1.798-1.252c-0.353-0.258-0.68-0.525-1.023-0.787c-0.501-0.382-1.01-0.762-1.489-1.149
		c-0.351-0.285-0.675-0.577-1.015-0.865c-0.44-0.374-0.891-0.746-1.311-1.126c-0.332-0.3-0.637-0.606-0.956-0.909
		c-0.396-0.376-0.802-0.749-1.179-1.131c-0.311-0.315-0.597-0.635-0.894-0.952c-0.353-0.377-0.717-0.751-1.052-1.132
		c-0.285-0.324-0.545-0.654-0.818-0.981c-0.317-0.38-0.642-0.76-0.939-1.143c-0.258-0.333-0.492-0.671-0.737-1.006
		c-0.28-0.385-0.569-0.768-0.832-1.156c-0.231-0.341-0.438-0.685-0.654-1.028c-0.246-0.388-0.497-0.774-0.725-1.164
		c-0.203-0.348-0.382-0.699-0.571-1.049c-0.21-0.39-0.427-0.779-0.621-1.171c-0.174-0.354-0.325-0.712-0.485-1.067
		c-0.177-0.392-0.358-0.784-0.517-1.178c-0.144-0.359-0.267-0.72-0.398-1.08c-0.143-0.395-0.292-0.789-0.417-1.185
		c-0.115-0.363-0.209-0.726-0.309-1.09c-0.11-0.396-0.225-0.792-0.317-1.19c-0.086-0.366-0.149-0.732-0.22-1.099
		c-0.076-0.397-0.157-0.793-0.217-1.191c-0.055-0.369-0.091-0.738-0.132-1.107c-0.044-0.397-0.091-0.795-0.118-1.192
		c-0.025-0.369-0.031-0.738-0.042-1.108c-0.008-0.295-0.034-0.589-0.033-0.885c0-0.122,0.01-0.245,0.013-0.367
		c0.003-0.212,0.014-0.424,0.022-0.636c0.02-0.511,0.053-1.021,0.1-1.531c0.02-0.21,0.037-0.421,0.061-0.631
		c0.077-0.667,0.172-1.333,0.297-1.998c0.005-0.03,0.008-0.06,0.015-0.09c0.132-0.694,0.298-1.384,0.481-2.074
		c0.054-0.204,0.117-0.408,0.176-0.611c0.146-0.505,0.305-1.008,0.479-1.51c0.074-0.213,0.146-0.427,0.226-0.641
		c0.22-0.595,0.459-1.187,0.718-1.777c0.04-0.091,0.074-0.183,0.115-0.275c0.265-0.59,0.549-1.18,0.854-1.765
		c1.014-2.007,2.335-4.7,3.3-6.731c0.516-1.087,1.144-2.563,1.633-3.662c0.014-0.031,1.572-3.619,2.981-7.405
		c0.433-1.161,1.008-2.708,1.401-3.883c0.364-1.088,0.776-2.35,1.186-3.624c-15.66,9.24-24.713,20.869-27.069,32.887
		c-0.051,0.26-0.088,0.521-0.132,0.783C159.142,342.98,158.994,345.16,159.056,347.341z"/>
</g>
<path style="fill:#2E2E30;" d="M195.197,259.195c0.017-0.465,0.036-0.929,0.049-1.394
	C195.231,258.317,195.214,258.786,195.197,259.195z"/>
<path style="fill:#57565C;" d="M184.128,314.647c-1.41,3.786-2.967,7.375-2.981,7.405c-0.489,1.099-1.117,2.576-1.633,3.662
	c-0.964,2.031-2.285,4.724-3.3,6.731c-0.305,0.585-0.588,1.174-0.854,1.765c-0.041,0.091-0.074,0.183-0.115,0.275
	c-0.259,0.59-0.497,1.183-0.718,1.777c-0.079,0.213-0.152,0.427-0.226,0.641c-0.173,0.503-0.333,1.005-0.479,1.51
	c-0.059,0.204-0.121,0.408-0.176,0.611c-0.184,0.69-0.349,1.381-0.481,2.074c-0.005,0.03-0.008,0.06-0.015,0.09
	c-0.124,0.665-0.219,1.331-0.297,1.998c-0.024,0.21-0.042,0.42-0.061,0.631c-0.047,0.51-0.082,1.021-0.1,1.531
	c-0.008,0.212-0.018,0.424-0.022,0.636c-0.002,0.122-0.013,0.245-0.013,0.367c-0.001,0.295,0.025,0.589,0.033,0.885
	c0.01,0.369,0.017,0.739,0.042,1.108c0.027,0.398,0.074,0.795,0.118,1.192c0.041,0.369,0.076,0.738,0.132,1.107
	c0.06,0.397,0.14,0.794,0.217,1.191c0.071,0.367,0.136,0.733,0.22,1.099c0.093,0.398,0.207,0.794,0.317,1.19
	c0.1,0.364,0.194,0.727,0.309,1.09c0.125,0.396,0.274,0.79,0.417,1.185c0.131,0.361,0.253,0.721,0.398,1.08
	c0.159,0.394,0.342,0.785,0.517,1.178c0.16,0.356,0.311,0.713,0.485,1.067c0.193,0.393,0.411,0.782,0.621,1.171
	c0.188,0.35,0.368,0.701,0.571,1.049c0.228,0.391,0.481,0.776,0.725,1.164c0.217,0.343,0.423,0.688,0.654,1.028
	c0.262,0.388,0.552,0.771,0.832,1.156c0.244,0.335,0.479,0.673,0.737,1.006c0.298,0.385,0.624,0.763,0.939,1.143
	c0.273,0.327,0.533,0.657,0.818,0.981c0.335,0.381,0.698,0.755,1.052,1.132c0.298,0.318,0.583,0.637,0.894,0.952
	c0.377,0.38,0.783,0.754,1.179,1.131c0.319,0.303,0.625,0.609,0.956,0.909c0.42,0.38,0.87,0.751,1.311,1.126
	c0.34,0.288,0.663,0.581,1.015,0.865c0.479,0.389,0.988,0.768,1.489,1.149c0.343,0.261,0.67,0.529,1.023,0.787
	c0.579,0.424,1.191,0.837,1.798,1.252c0.305,0.208,0.592,0.422,0.905,0.628c0.933,0.616,1.896,1.224,2.892,1.818
	c32.132,19.208,84.978,19.742,118.036,1.192c1.042-0.584,2.05-1.181,3.028-1.789c0.333-0.207,0.642-0.422,0.967-0.632
	c0.63-0.405,1.265-0.809,1.867-1.224c0.371-0.256,0.715-0.52,1.075-0.779c0.527-0.379,1.064-0.755,1.568-1.141
	c0.365-0.279,0.702-0.566,1.055-0.849c0.468-0.375,0.947-0.747,1.394-1.128c0.35-0.299,0.674-0.605,1.011-0.907
	c0.418-0.374,0.846-0.746,1.245-1.125c0.329-0.313,0.632-0.634,0.948-0.951c0.375-0.376,0.76-0.75,1.116-1.131
	c0.305-0.326,0.583-0.657,0.874-0.986c0.335-0.379,0.68-0.758,0.998-1.141c0.277-0.335,0.529-0.677,0.792-1.016
	c0.298-0.383,0.605-0.766,0.885-1.152c0.249-0.344,0.472-0.692,0.706-1.039c0.263-0.389,0.534-0.775,0.778-1.167
	c0.219-0.351,0.414-0.705,0.619-1.058c0.227-0.392,0.462-0.783,0.672-1.178c0.19-0.358,0.356-0.719,0.532-1.079
	c0.192-0.395,0.392-0.789,0.566-1.186c0.159-0.362,0.296-0.726,0.44-1.09c0.159-0.399,0.323-0.797,0.464-1.198
	c0.129-0.367,0.236-0.736,0.35-1.104c0.124-0.4,0.253-0.8,0.359-1.203c0.098-0.371,0.176-0.743,0.259-1.115
	c0.09-0.402,0.185-0.805,0.258-1.208c0.067-0.373,0.114-0.747,0.166-1.12c0.056-0.403,0.117-0.807,0.156-1.211
	c0.037-0.375,0.053-0.751,0.074-1.127c0.023-0.403,0.049-0.807,0.054-1.21c0.001-0.1,0.014-0.201,0.014-0.302
	c0.001-0.528-0.017-1.054-0.045-1.582c-0.003-0.049-0.001-0.099-0.004-0.148c-0.041-0.696-0.115-1.392-0.207-2.087
	c-0.027-0.203-0.062-0.406-0.094-0.609c-0.079-0.511-0.171-1.021-0.279-1.53c-0.046-0.216-0.091-0.434-0.141-0.65
	c-0.14-0.598-0.298-1.194-0.476-1.789c-0.029-0.097-0.052-0.195-0.083-0.293c-0.213-0.688-0.458-1.371-0.722-2.053
	c-0.074-0.192-0.158-0.382-0.236-0.575c-0.208-0.506-0.428-1.01-0.665-1.513c-0.1-0.214-0.202-0.428-0.307-0.642
	c-0.073-0.148-0.138-0.298-0.213-0.446c-0.533-1.039-1.226-2.432-1.733-3.484c-0.492-1.02-1.118-2.393-1.598-3.419
	c-0.508-1.088-1.124-2.566-1.606-3.667c-0.014-0.03-1.5-3.507-2.931-7.422c-0.424-1.162-0.99-2.711-1.374-3.887
	c-0.346-1.058-0.738-2.282-1.127-3.52c-0.459-1.457-0.915-2.934-1.291-4.189c-0.376-1.254-1.448-5.182-2.155-8.216
	c-0.68-2.925-2.488-10.692-3.657-20.904c-0.149-1.305-0.345-3.046-0.448-4.356c-0.201-2.524-0.427-5.882-0.57-8.426
	c-0.028-0.7-0.066-1.4-0.087-2.101c-0.013-0.389-0.023-0.773-0.032-1.152c-0.044-1.837-0.071-3.675-0.066-5.514
	c-0.026,9.2-6.211,18.374-18.501,25.269c-24.18,13.568-62.835,13.178-86.339-0.872c-11.558-6.91-17.3-15.836-17.275-24.738
	c0,0.002,0,0.004,0,0.006c0-0.002,0-0.004,0-0.006c-0.005,1.834-0.042,3.665-0.096,5.496c0-0.002,0-0.004,0-0.005
	c-0.014,0.471-0.032,0.941-0.05,1.412c0-0.004,0-0.008,0-0.013c-0.024,0.66-0.063,1.32-0.093,1.979c0-0.001,0-0.003,0-0.004
	c-0.235,5.093-0.637,10.175-1.25,15.238c0.612-5.06,1.015-10.141,1.25-15.232c-0.158,2.547-0.409,5.921-0.626,8.455
	c-0.113,1.309-0.32,3.049-0.476,4.354c-1.218,10.097-3.022,17.654-3.793,20.881c-0.675,2.83-1.815,6.923-2.21,8.21
	c-0.375,1.219-0.827,2.65-1.282,4.067c-0.41,1.274-0.822,2.536-1.186,3.624C185.137,311.938,184.56,313.486,184.128,314.647z"/>
<g>
	<path style="fill:#2E2E30;" d="M158.97,362.998c-0.001,0.343,0.029,0.684,0.039,1.026c0.013,0.43,0.019,0.861,0.048,1.291
		c0.031,0.463,0.087,0.925,0.138,1.388c0.047,0.429,0.089,0.858,0.153,1.286c0.069,0.462,0.163,0.924,0.252,1.384
		c0.083,0.427,0.158,0.855,0.257,1.281c0.108,0.462,0.24,0.921,0.368,1.381c0.117,0.423,0.227,0.847,0.36,1.271
		c0.146,0.461,0.319,0.919,0.485,1.378c0.152,0.419,0.294,0.839,0.462,1.256c0.185,0.459,0.397,0.914,0.602,1.371
		c0.186,0.414,0.362,0.83,0.564,1.241c0.225,0.457,0.476,0.909,0.722,1.363c0.219,0.408,0.428,0.816,0.665,1.221
		c0.264,0.452,0.557,0.902,0.841,1.351c0.253,0.4,0.494,0.802,0.764,1.201c0.305,0.45,0.641,0.895,0.967,1.342
		c0.285,0.391,0.557,0.785,0.859,1.172c0.348,0.448,0.728,0.891,1.098,1.335c0.123,0.148,0.246,0.298,0.371,0.445
		c-0.001,0.001-0.002,0.001-0.003,0.002c0.112,0.132,0.212,0.264,0.325,0.396c0.002-0.001,0.004-0.003,0.006-0.004
		c1.281,1.477,2.692,2.927,4.211,4.349c0.265,0.248,0.513,0.501,0.786,0.747c0.491,0.443,1.017,0.878,1.531,1.314
		c0.392,0.333,0.767,0.671,1.172,1.001c0.564,0.459,1.166,0.906,1.758,1.356c0.391,0.298,0.764,0.602,1.166,0.897
		c0.679,0.497,1.398,0.982,2.111,1.47c0.349,0.238,0.678,0.483,1.034,0.718c1.086,0.718,2.207,1.423,3.366,2.116
		c37.384,22.348,98.868,22.97,137.329,1.388c1.212-0.68,2.385-1.374,3.522-2.081c0.383-0.238,0.74-0.487,1.115-0.728
		c0.737-0.474,1.481-0.947,2.184-1.431c0.426-0.294,0.82-0.597,1.235-0.894c0.619-0.445,1.249-0.886,1.84-1.339
		c0.423-0.324,0.814-0.657,1.224-0.984c0.546-0.438,1.104-0.871,1.626-1.317c0.408-0.347,0.783-0.702,1.176-1.053
		c0.262-0.235,0.526-0.469,0.781-0.706c1.524-1.41,2.926-2.851,4.213-4.318h0.001c0.117-0.133,0.237-0.263,0.352-0.397
		c-0.001-0.001-0.003-0.002-0.004-0.003c0.226-0.262,0.468-0.52,0.685-0.785c0.323-0.39,0.615-0.786,0.921-1.18
		c0.348-0.447,0.705-0.892,1.031-1.343c0.288-0.399,0.549-0.804,0.82-1.206c0.306-0.452,0.622-0.904,0.906-1.359
		c0.255-0.408,0.482-0.82,0.72-1.231c0.264-0.457,0.538-0.912,0.782-1.371c0.22-0.416,0.414-0.835,0.618-1.254
		c0.224-0.46,0.456-0.919,0.659-1.381c0.186-0.422,0.345-0.847,0.513-1.273c0.184-0.463,0.374-0.925,0.538-1.39
		c0.15-0.427,0.275-0.857,0.408-1.286c0.144-0.466,0.295-0.931,0.419-1.399c0.114-0.43,0.204-0.862,0.3-1.294
		c0.106-0.469,0.215-0.937,0.301-1.407c0.078-0.434,0.133-0.868,0.193-1.303c0.066-0.469,0.136-0.939,0.182-1.41
		c0.042-0.437,0.062-0.872,0.086-1.31c0.026-0.47,0.056-0.94,0.063-1.411c0.001-0.117,0.016-0.233,0.016-0.35l0.047-16.684
		c0,0.117-0.015,0.233-0.016,0.35c-0.006,0.47-0.037,0.94-0.063,1.411c-0.025,0.437-0.044,0.874-0.086,1.31
		c-0.045,0.47-0.115,0.939-0.181,1.41c-0.061,0.435-0.115,0.869-0.193,1.303c-0.085,0.47-0.195,0.939-0.3,1.407
		c-0.089,0.395-0.165,0.791-0.268,1.185c-0.009,0.037-0.023,0.072-0.032,0.109c-0.124,0.468-0.275,0.933-0.419,1.399
		c-0.133,0.429-0.257,0.859-0.408,1.286c-0.163,0.465-0.354,0.927-0.538,1.39c-0.168,0.424-0.328,0.849-0.513,1.273
		c-0.204,0.463-0.435,0.922-0.659,1.381c-0.204,0.418-0.397,0.837-0.618,1.253c-0.243,0.46-0.517,0.915-0.782,1.371
		c-0.238,0.411-0.465,0.822-0.72,1.231c-0.285,0.457-0.6,0.907-0.907,1.359c-0.272,0.402-0.532,0.807-0.82,1.206
		c-0.326,0.451-0.684,0.897-1.031,1.343c-0.306,0.394-0.599,0.79-0.921,1.18c-0.368,0.446-0.768,0.884-1.159,1.325
		c-0.339,0.383-0.664,0.77-1.019,1.15c-0.414,0.443-0.861,0.877-1.297,1.314c-0.368,0.369-0.72,0.742-1.103,1.108
		c-0.464,0.442-0.963,0.875-1.45,1.31c-0.392,0.351-0.768,0.706-1.176,1.053c-0.519,0.442-1.074,0.874-1.617,1.309
		c-0.413,0.33-0.808,0.667-1.234,0.993c-0.588,0.45-1.214,0.889-1.83,1.331c-0.006,0.004-0.011,0.008-0.018,0.013l0,0
		c-0.093,0.067-0.183,0.134-0.276,0.2h0.001c-0.321,0.229-0.624,0.463-0.952,0.689c-0.704,0.485-1.447,0.957-2.184,1.431
		c-0.307,0.197-0.598,0.401-0.91,0.597c-0.07,0.044-0.135,0.089-0.205,0.132c-1.137,0.707-2.311,1.401-3.522,2.081
		c-38.46,21.582-99.945,20.96-137.329-1.388c-0.685-0.41-1.333-0.834-1.994-1.252c-0.456-0.288-0.929-0.572-1.372-0.864
		c-0.356-0.236-0.685-0.48-1.034-0.718c-0.549-0.375-1.098-0.749-1.627-1.13c0.001,0,0.001-0.001,0.002-0.001
		c-0.069-0.049-0.143-0.097-0.211-0.147c-0.001,0-0.002,0.001-0.003,0.001c-0.09-0.065-0.184-0.129-0.273-0.193
		c-0.402-0.295-0.775-0.599-1.166-0.897c-0.591-0.45-1.192-0.899-1.757-1.356c-0.403-0.328-0.776-0.664-1.166-0.995
		c-0.517-0.439-1.046-0.876-1.539-1.321c-0.385-0.348-0.739-0.703-1.11-1.054c-0.462-0.439-0.935-0.874-1.375-1.319
		c-0.36-0.364-0.691-0.735-1.035-1.102c-0.414-0.44-0.838-0.878-1.229-1.323c-0.331-0.376-0.633-0.76-0.949-1.139
		c-0.369-0.444-0.748-0.885-1.095-1.333c-0.301-0.388-0.574-0.782-0.859-1.172c-0.326-0.447-0.661-0.891-0.967-1.342
		c-0.27-0.398-0.511-0.8-0.764-1.201c-0.284-0.449-0.578-0.899-0.841-1.351c-0.236-0.404-0.444-0.813-0.663-1.22
		c-0.246-0.454-0.498-0.907-0.722-1.365c-0.202-0.412-0.378-0.825-0.563-1.239c-0.205-0.457-0.418-0.913-0.603-1.372
		c-0.168-0.417-0.31-0.837-0.462-1.256c-0.166-0.46-0.339-0.917-0.485-1.378c-0.134-0.422-0.243-0.846-0.36-1.27
		c-0.064-0.231-0.138-0.461-0.196-0.693c-0.059-0.23-0.118-0.46-0.171-0.69c-0.099-0.426-0.174-0.854-0.257-1.28
		c-0.089-0.462-0.183-0.923-0.252-1.385c-0.064-0.428-0.106-0.857-0.153-1.285c-0.051-0.463-0.107-0.925-0.138-1.388
		c-0.029-0.43-0.037-0.861-0.049-1.291c-0.009-0.343-0.04-0.684-0.039-1.026L158.97,362.998z"/>
	<path style="fill:#2E2E30;" d="M195.698,179.635c0.03,0.27,0.055,0.539,0.096,0.808c0.044,0.292,0.103,0.583,0.159,0.875
		c0.051,0.267,0.098,0.534,0.161,0.8c0.068,0.292,0.152,0.582,0.232,0.872c0.073,0.265,0.142,0.531,0.226,0.796
		c0.092,0.29,0.201,0.579,0.305,0.868c0.095,0.262,0.185,0.527,0.29,0.788c0.116,0.288,0.25,0.576,0.379,0.863
		c0.117,0.26,0.228,0.52,0.354,0.779c0.141,0.286,0.3,0.571,0.453,0.856c0.138,0.256,0.27,0.514,0.418,0.768
		c0.166,0.285,0.35,0.566,0.529,0.85c0.159,0.252,0.31,0.505,0.48,0.754c0.191,0.283,0.402,0.563,0.607,0.844
		c0.18,0.246,0.351,0.493,0.54,0.737c0.217,0.28,0.455,0.556,0.684,0.833c0.201,0.24,0.392,0.484,0.602,0.722
		c0.245,0.278,0.509,0.551,0.767,0.824c0.218,0.233,0.428,0.468,0.656,0.699c0.275,0.277,0.571,0.55,0.859,0.823
		c0.235,0.223,0.46,0.448,0.703,0.669c0.307,0.278,0.637,0.551,0.96,0.824c0.248,0.21,0.484,0.423,0.74,0.631
		c0.348,0.283,0.72,0.559,1.085,0.837c0.253,0.193,0.494,0.39,0.754,0.58c0.412,0.301,0.847,0.595,1.278,0.889
		c0.235,0.161,0.458,0.326,0.699,0.486c0.682,0.45,1.387,0.894,2.115,1.329c23.503,14.051,62.158,14.44,86.339,0.872
		c0.762-0.427,1.5-0.864,2.215-1.309c0.234-0.145,0.451-0.297,0.68-0.445c0.47-0.302,0.945-0.604,1.394-0.913
		c0.265-0.183,0.511-0.372,0.768-0.557c0.392-0.281,0.79-0.561,1.165-0.847c0.264-0.202,0.509-0.41,0.764-0.614
		c0.346-0.277,0.698-0.552,1.028-0.833c0.252-0.215,0.485-0.435,0.728-0.653c0.31-0.277,0.628-0.553,0.923-0.834
		c0.237-0.226,0.454-0.456,0.681-0.683c0.278-0.279,0.563-0.557,0.828-0.839c0.219-0.235,0.42-0.474,0.63-0.712
		c0.249-0.281,0.504-0.56,0.738-0.844c0.202-0.243,0.383-0.491,0.575-0.737c0.219-0.282,0.445-0.563,0.651-0.848
		c0.182-0.252,0.346-0.506,0.516-0.759c0.192-0.284,0.39-0.567,0.569-0.854c0.16-0.257,0.303-0.516,0.452-0.774
		c0.166-0.287,0.339-0.574,0.492-0.863c0.138-0.26,0.258-0.521,0.386-0.783c0.142-0.292,0.288-0.581,0.417-0.875
		c0.116-0.263,0.215-0.53,0.321-0.794c0.116-0.293,0.237-0.585,0.341-0.879c0.094-0.269,0.172-0.539,0.256-0.809
		c0.091-0.293,0.185-0.584,0.263-0.878c0.072-0.272,0.129-0.543,0.189-0.815c0.066-0.295,0.136-0.589,0.188-0.885
		c0.049-0.273,0.084-0.545,0.121-0.818c0.042-0.296,0.086-0.591,0.114-0.887c0.026-0.274,0.039-0.549,0.054-0.823
		c0.017-0.296,0.036-0.59,0.04-0.886c0.121-8.976-5.611-17.992-17.265-24.958c-23.504-14.051-62.158-14.44-86.339-0.872
		c-12.577,7.057-18.744,16.501-18.476,25.916c0.007,0.271,0.013,0.54,0.03,0.81C195.631,179.053,195.665,179.344,195.698,179.635z"
		/>
</g>
<path style="fill:#3E3D43;" d="M212.617,277.043c23.504,14.051,62.158,14.44,86.339,0.872c12.289-6.895,18.475-16.07,18.501-25.269
	l0.213-75c0,0.073-0.009,0.147-0.009,0.22c-0.004,0.296-0.023,0.591-0.04,0.886c-0.016,0.275-0.028,0.549-0.054,0.823
	c-0.028,0.296-0.073,0.591-0.114,0.887c-0.039,0.273-0.072,0.545-0.121,0.818c-0.053,0.296-0.122,0.589-0.188,0.885
	c-0.062,0.272-0.117,0.543-0.189,0.815c-0.077,0.294-0.172,0.585-0.263,0.878c-0.084,0.27-0.162,0.54-0.256,0.809
	c-0.103,0.294-0.224,0.586-0.341,0.879c-0.106,0.264-0.205,0.531-0.321,0.794c-0.129,0.293-0.275,0.583-0.417,0.875
	c-0.127,0.261-0.248,0.523-0.386,0.783c-0.154,0.289-0.326,0.576-0.492,0.863c-0.149,0.258-0.293,0.517-0.452,0.774
	c-0.179,0.286-0.377,0.569-0.569,0.854c-0.171,0.253-0.334,0.508-0.516,0.759c-0.206,0.285-0.432,0.566-0.651,0.848
	c-0.191,0.246-0.374,0.493-0.575,0.737c-0.234,0.284-0.49,0.563-0.738,0.844c-0.21,0.237-0.411,0.476-0.63,0.712
	c-0.264,0.282-0.55,0.56-0.828,0.839c-0.228,0.228-0.445,0.458-0.681,0.683c-0.296,0.281-0.612,0.557-0.923,0.834
	c-0.243,0.217-0.476,0.438-0.728,0.653c-0.33,0.281-0.682,0.556-1.028,0.833c-0.256,0.205-0.499,0.413-0.764,0.614
	c-0.375,0.286-0.773,0.566-1.165,0.847c-0.257,0.185-0.504,0.374-0.768,0.557c-0.449,0.309-0.924,0.611-1.394,0.913
	c-0.229,0.147-0.446,0.299-0.68,0.445c-0.715,0.444-1.453,0.881-2.215,1.309c-24.18,13.568-62.835,13.178-86.339-0.872
	c-0.728-0.436-1.433-0.879-2.115-1.329c-0.241-0.16-0.464-0.324-0.699-0.486c-0.43-0.295-0.866-0.588-1.278-0.889
	c-0.26-0.19-0.502-0.387-0.754-0.58c-0.365-0.278-0.737-0.555-1.085-0.837c-0.256-0.208-0.492-0.421-0.74-0.631
	c-0.323-0.274-0.652-0.546-0.96-0.824c-0.244-0.22-0.469-0.446-0.703-0.669c-0.288-0.274-0.584-0.546-0.859-0.823
	c-0.229-0.231-0.438-0.466-0.656-0.699c-0.258-0.275-0.522-0.548-0.767-0.824c-0.21-0.238-0.401-0.481-0.602-0.722
	c-0.23-0.277-0.467-0.553-0.684-0.833c-0.189-0.243-0.36-0.491-0.54-0.737c-0.205-0.281-0.416-0.56-0.607-0.844
	c-0.169-0.25-0.321-0.503-0.48-0.754c-0.179-0.283-0.364-0.565-0.529-0.849c-0.148-0.255-0.28-0.512-0.418-0.768
	c-0.154-0.285-0.312-0.569-0.453-0.856c-0.127-0.259-0.237-0.519-0.354-0.779c-0.13-0.287-0.263-0.575-0.379-0.863
	c-0.106-0.261-0.195-0.526-0.29-0.788c-0.104-0.289-0.213-0.578-0.305-0.868c-0.084-0.264-0.153-0.531-0.226-0.796
	c-0.08-0.29-0.164-0.581-0.232-0.872c-0.062-0.266-0.109-0.534-0.161-0.8c-0.056-0.292-0.116-0.583-0.159-0.875
	c-0.041-0.27-0.067-0.539-0.096-0.808c-0.032-0.29-0.067-0.581-0.087-0.872c-0.019-0.27-0.023-0.54-0.03-0.81
	c-0.006-0.215-0.025-0.432-0.024-0.647l-0.212,75C195.318,261.207,201.059,270.134,212.617,277.043z"/>
<g>
	<path style="fill:#2E2E30;" d="M359.544,151.358c0.652-15.897-9.512-31.932-30.525-44.064
		c-40.592-23.436-106.188-23.435-146.516,0.001c-20.098,11.68-30.121,26.977-30.1,42.284c0-0.049-0.006-0.098-0.005-0.146
		l-0.123,10.867c-0.044,15.456,10.157,30.937,30.584,42.729c40.592,23.436,106.188,23.435,146.516-0.001
		c20.035-11.642,30.062-26.879,30.106-42.138l0.123-10.867C359.601,150.467,359.562,150.912,359.544,151.358z"/>
	<path style="fill:#2E2E30;" d="M359.602,150.023l-0.123,10.867c-0.043,15.259-10.072,30.495-30.106,42.138
		c-40.327,23.436-105.924,23.436-146.516,0.001c-20.426-11.793-30.628-27.274-30.584-42.729l0.123-10.867
		c-0.044,15.457,10.157,30.937,30.584,42.729c40.592,23.436,106.188,23.435,146.516-0.001
		C349.531,180.518,359.559,165.282,359.602,150.023z"/>
</g>
<path style="fill:#57565C;" d="M329.018,107.293c40.592,23.436,40.805,61.432,0.478,84.868s-105.924,23.436-146.516,0.001
	s-40.805-61.432-0.478-84.867S288.427,83.858,329.018,107.293z"/>
<circle style="fill:#3E3D43;" cx="255.933" cy="90.591" r="90.591"/>
<g>
</g>
<g>
</g>
<g>
</g>
<g>
</g>
<g>
</g>
<g>
</g>
<g>
</g>
<g>
</g>
<g>
</g>
<g>
</g>
<g>
</g>
<g>
</g>
<g>
</g>
<g>
</g>
<g>
</g>
</svg>
