<?xml version="1.0" encoding="iso-8859-1"?>
<!-- Generator: Adobe Illustrator 19.0.0, SVG Export Plug-In . SVG Version: 6.00 Build 0)  -->
<svg version="1.1" id="Capa_1" xmlns="http://www.w3.org/2000/svg" xmlns:xlink="http://www.w3.org/1999/xlink" x="0px" y="0px"
	 viewBox="0 0 512 512" style="enable-background:new 0 0 512 512;" xml:space="preserve">
<linearGradient id="SVGID_1_" gradientUnits="userSpaceOnUse" x1="6.495509e-005" y1="258" x2="511.9999" y2="258" gradientTransform="matrix(1 0 0 -1 0 514)">
	<stop  offset="0" style="stop-color:#00F2FE"/>
	<stop  offset="0.021" style="stop-color:#03EFFE"/>
	<stop  offset="0.293" style="stop-color:#24D2FE"/>
	<stop  offset="0.554" style="stop-color:#3CBDFE"/>
	<stop  offset="0.796" style="stop-color:#4AB0FE"/>
	<stop  offset="1" style="stop-color:#4FACFE"/>
</linearGradient>
<path style="fill:url(#SVGID_1_);" d="M267,472H60.693c-8.538,0-13.689-4.766-15.999-7.606c-3.989-4.905-5.533-11.29-4.236-17.519
	c20.756-99.695,108.691-172.521,210.24-174.977c1.759,0.068,3.526,0.102,5.302,0.102c1.788,0,3.569-0.035,5.341-0.104
	c44.466,1.052,86.883,15.236,122.988,41.182c8.969,6.446,21.467,4.399,27.913-4.569c6.446-8.97,4.4-21.467-4.57-27.913
	c-21.691-15.587-45.306-27.584-70.182-35.778C370.565,219.986,392,180.449,392,136C392,61.01,330.991,0,256,0S120,61.01,120,136
	c0,44.504,21.488,84.084,54.633,108.911c-30.368,9.998-58.863,25.555-83.803,46.069c-45.732,37.617-77.529,90.086-89.532,147.743
	c-3.762,18.066,0.745,36.622,12.363,50.908C25.222,503.847,42.365,512,60.693,512H267c11.046,0,20-8.954,20-20S278.046,472,267,472z
	 M160,136c0-52.935,43.065-96,96-96s96,43.065,96,96c0,51.302-40.45,93.334-91.131,95.878c-1.621-0.03-3.244-0.045-4.869-0.045
	c-1.614,0-3.228,0.016-4.84,0.046C200.465,229.35,160,187.312,160,136z M506.142,477.857c7.811,7.811,7.811,20.475,0,28.285
	C502.237,510.048,497.118,512,492,512s-10.237-1.952-14.142-5.857L427,455.285l-50.858,50.858C372.237,510.048,367.118,512,362,512
	s-10.237-1.952-14.142-5.857c-7.811-7.811-7.811-20.475,0-28.285L398.715,427l-50.857-50.857c-7.811-7.811-7.811-20.475,0-28.285
	s20.474-7.811,28.284,0L427,398.715l50.858-50.858c7.811-7.811,20.474-7.811,28.284,0c7.811,7.811,7.811,20.475,0,28.285
	L455.285,427L506.142,477.857z"/>
<g>
</g>
<g>
</g>
<g>
</g>
<g>
</g>
<g>
</g>
<g>
</g>
<g>
</g>
<g>
</g>
<g>
</g>
<g>
</g>
<g>
</g>
<g>
</g>
<g>
</g>
<g>
</g>
<g>
</g>
</svg>
