<?xml version="1.0" encoding="iso-8859-1"?>
<!-- Generator: Adobe Illustrator 19.0.0, SVG Export Plug-In . SVG Version: 6.00 Build 0)  -->
<svg version="1.1" id="Capa_1" xmlns="http://www.w3.org/2000/svg" xmlns:xlink="http://www.w3.org/1999/xlink" x="0px" y="0px"
	 viewBox="0 0 511.998 511.998" style="enable-background:new 0 0 511.998 511.998;" xml:space="preserve">
<linearGradient id="SVGID_1_" gradientUnits="userSpaceOnUse" x1="0.567" y1="257.2619" x2="512.5724" y2="257.2619" gradientTransform="matrix(0.9981 0 0 -0.9981 -0.0915 512.7805)">
	<stop  offset="0" style="stop-color:#00F2FE"/>
	<stop  offset="0.021" style="stop-color:#03EFFE"/>
	<stop  offset="0.293" style="stop-color:#24D2FE"/>
	<stop  offset="0.554" style="stop-color:#3CBDFE"/>
	<stop  offset="0.796" style="stop-color:#4AB0FE"/>
	<stop  offset="1" style="stop-color:#4FACFE"/>
</linearGradient>
<path style="fill:url(#SVGID_1_);" d="M491.561,387.233h-142.78l58.298-186.095l39.704,127.206
	c2.667,8.545,10.547,14.02,19.05,14.02c1.97,0,3.974-0.293,5.954-0.912c10.524-3.285,16.393-14.48,13.108-25.004l-58.881-188.647
	c-2.105-6.743-7.617-11.873-14.494-13.487L315.565,91.79c-4.375-20.436-19.207-37.041-38.603-43.918v-27.91
	C276.963,8.937,268.025,0,257,0c-11.025,0-19.963,8.937-19.963,19.963v27.912c-10.661,3.78-19.944,10.499-26.868,19.178
	L109.608,43.448c-10.203-2.392-20.514,3.503-23.624,13.507L2.316,326c-1.179,2.546-1.837,5.383-1.837,8.374c0,0.035,0,0.071,0,0.106
	c-0.009,0.395-0.007,0.791,0.008,1.183c0.693,57.198,47.437,103.515,104.796,103.515c57.789,0,104.804-47.015,104.804-104.804
	c0-2.798-0.576-5.461-1.615-7.878l-73.995-236.2l62.638,14.702c0.353,32.721,27.081,59.23,59.884,59.23
	c23.223,0,43.4-13.286,53.33-32.656l71.449,16.771l-78.473,250.493c-0.337,1.076-0.579,2.16-0.729,3.241
	c-0.432,1.633-0.662,3.348-0.662,5.116c0,57.789,47.015,104.804,104.804,104.804s104.804-47.015,104.804-104.804
	C511.524,396.171,502.586,387.233,491.561,387.233z M105.078,130.003l57.77,184.409H47.731L105.078,130.003z M105.284,399.253
	c-28.813,0-53.298-18.878-61.737-44.916H167.02C158.583,380.375,134.098,399.253,105.284,399.253z M257,124.304
	c-11.007,0-19.963-8.955-19.963-19.963S245.992,84.379,257,84.379c11.007,0,19.963,8.955,19.963,19.963S268.007,124.304,257,124.304
	z M406.72,472.075c-28.813,0-53.298-18.878-61.737-44.916h123.474C460.019,453.197,435.534,472.075,406.72,472.075z"/>
<g>
</g>
<g>
</g>
<g>
</g>
<g>
</g>
<g>
</g>
<g>
</g>
<g>
</g>
<g>
</g>
<g>
</g>
<g>
</g>
<g>
</g>
<g>
</g>
<g>
</g>
<g>
</g>
<g>
</g>
</svg>
