<?xml version="1.0" encoding="iso-8859-1"?>
<!-- Generator: Adobe Illustrator 19.0.0, SVG Export Plug-In . SVG Version: 6.00 Build 0)  -->
<svg version="1.1" id="Capa_1" xmlns="http://www.w3.org/2000/svg" xmlns:xlink="http://www.w3.org/1999/xlink" x="0px" y="0px"
	 viewBox="0 0 512 512" style="enable-background:new 0 0 512 512;" xml:space="preserve">
<linearGradient id="SVGID_1_" gradientUnits="userSpaceOnUse" x1="2.110301e-005" y1="258.0001" x2="512" y2="258.0001" gradientTransform="matrix(1 0 0 -1 0 514.0001)">
	<stop  offset="0" style="stop-color:#00F2FE"/>
	<stop  offset="0.021" style="stop-color:#03EFFE"/>
	<stop  offset="0.293" style="stop-color:#24D2FE"/>
	<stop  offset="0.554" style="stop-color:#3CBDFE"/>
	<stop  offset="0.796" style="stop-color:#4AB0FE"/>
	<stop  offset="1" style="stop-color:#4FACFE"/>
</linearGradient>
<path style="fill:url(#SVGID_1_);" d="M512,402c0,16.081-6.305,31.191-17.754,42.547L432.084,506.2c-3.9,3.868-8.993,5.8-14.083,5.8
	c-5.146,0-10.29-1.974-14.201-5.916c-7.778-7.843-7.726-20.506,0.116-28.284l55.252-54.8h-22.39
	c-69.908,0-134.546-30.412-177.341-83.439c-6.938-8.596-5.593-21.188,3.003-28.124c8.595-6.938,21.188-5.594,28.124,3.003
	C325.728,358.011,379.021,383,436.778,383h24.406l-57.268-56.8c-7.842-7.778-7.895-20.441-0.116-28.284s20.441-7.895,28.284-0.116
	l62.162,61.653C505.695,370.809,512,385.919,512,402z M248.46,265.74l25.64-44.378C307.017,164.391,369.352,129,436.778,129h24.406
	l-57.268,56.8c-7.842,7.778-7.895,20.441-0.116,28.284c3.911,3.942,9.054,5.916,14.201,5.916c5.09,0,10.184-1.932,14.083-5.8
	l62.162-61.653C505.695,141.192,512,126.081,512,110s-6.305-31.191-17.754-42.547L432.084,5.8
	c-7.843-7.778-20.506-7.727-28.284,0.116s-7.726,20.506,0.116,28.284L459.168,89h-22.39c-81.666,0-157.271,43.051-197.313,112.351
	l-8.476,14.671l-13.676-23.671C177.272,123.051,101.666,80,20,80C8.954,80,0,88.954,0,100s8.954,20,20,20
	c67.426,0,129.761,35.391,162.678,92.362L207.89,256l-25.213,43.638C149.761,356.61,87.426,392,20,392c-11.046,0-20,8.954-20,20
	s8.954,20,20,20c81.666,0,157.271-43.051,197.313-112.351l30.82-53.342C248.245,266.12,248.354,265.931,248.46,265.74z"/>
<g>
</g>
<g>
</g>
<g>
</g>
<g>
</g>
<g>
</g>
<g>
</g>
<g>
</g>
<g>
</g>
<g>
</g>
<g>
</g>
<g>
</g>
<g>
</g>
<g>
</g>
<g>
</g>
<g>
</g>
</svg>
