<?xml version="1.0" encoding="iso-8859-1"?>
<!-- Generator: Adobe Illustrator 19.0.0, SVG Export Plug-In . SVG Version: 6.00 Build 0)  -->
<svg version="1.1" id="Capa_1" xmlns="http://www.w3.org/2000/svg" xmlns:xlink="http://www.w3.org/1999/xlink" x="0px" y="0px"
	 viewBox="0 0 512 512" style="enable-background:new 0 0 512 512;" xml:space="preserve">
<linearGradient id="SVGID_1_" gradientUnits="userSpaceOnUse" x1="-0.003" y1="258.0228" x2="511.9663" y2="258.0228" gradientTransform="matrix(1.0001 0 0 -1.0001 0.003 514.0386)">
	<stop  offset="0" style="stop-color:#00F2FE"/>
	<stop  offset="0.021" style="stop-color:#03EFFE"/>
	<stop  offset="0.293" style="stop-color:#24D2FE"/>
	<stop  offset="0.554" style="stop-color:#3CBDFE"/>
	<stop  offset="0.796" style="stop-color:#4AB0FE"/>
	<stop  offset="1" style="stop-color:#4FACFE"/>
</linearGradient>
<path style="fill:url(#SVGID_1_);" d="M494.468,213.588c-0.035-0.035-0.071-0.071-0.107-0.106L338.39,59.773
	c-17.481-17.439-42.504-22.401-65.324-12.954c-22.855,9.461-37.052,30.704-37.052,55.439v89.215L102.375,59.772
	C84.894,42.333,59.872,37.371,37.051,46.818C14.197,56.28,0,77.523,0,102.259v307.483c0,24.734,14.197,45.979,37.051,55.44
	c7.653,3.169,15.554,4.717,23.334,4.716c15.424,0,30.378-6.082,41.998-17.678l133.631-131.684v89.205
	c0,24.772,14.168,46.027,36.975,55.469c7.599,3.146,15.446,4.684,23.18,4.683c15.414,0,30.373-6.104,41.999-17.737
	c7.809-7.813,7.803-20.478-0.011-28.287c-7.811-7.809-20.477-7.802-28.286,0.011c-8.727,8.731-18.724,5.554-21.58,4.371
	c-2.879-1.192-12.274-6.05-12.274-18.51V102.259c0-12.403,9.453-17.28,12.351-18.48c2.896-1.2,13.032-4.431,21.798,4.342
	c0.036,0.035,0.072,0.071,0.109,0.107l155.942,153.681c7.732,7.781,7.736,20.396,0.01,28.183l-87.216,85.644
	c-7.882,7.739-7.997,20.403-0.258,28.285c7.74,7.883,20.404,7.998,28.285,0.258l87.296-85.722c0.045-0.044,0.089-0.088,0.133-0.132
	C517.844,275.034,517.844,236.978,494.468,213.588z M230.206,270.099l-86.296,85.038l-69.65,68.633l-0.109,0.109
	c-8.767,8.772-18.901,5.542-21.798,4.341c-2.897-1.199-12.35-6.076-12.35-18.479V102.259c0-12.403,9.453-17.28,12.351-18.48
	c1.364-0.565,4.334-1.581,8.011-1.581c4.129,0,9.15,1.282,13.787,5.923c0.036,0.035,0.072,0.071,0.109,0.107l155.942,153.681
	C237.937,249.693,237.938,262.312,230.206,270.099z"/>
<g>
</g>
<g>
</g>
<g>
</g>
<g>
</g>
<g>
</g>
<g>
</g>
<g>
</g>
<g>
</g>
<g>
</g>
<g>
</g>
<g>
</g>
<g>
</g>
<g>
</g>
<g>
</g>
<g>
</g>
</svg>
