<?xml version="1.0" encoding="iso-8859-1"?>
<!-- Generator: Adobe Illustrator 19.0.0, SVG Export Plug-In . SVG Version: 6.00 Build 0)  -->
<svg version="1.1" id="Capa_1" xmlns="http://www.w3.org/2000/svg" xmlns:xlink="http://www.w3.org/1999/xlink" x="0px" y="0px"
	 viewBox="0 0 512 512" style="enable-background:new 0 0 512 512;" xml:space="preserve">
<linearGradient id="SVGID_1_" gradientUnits="userSpaceOnUse" x1="97.9795" y1="258.0432" x2="413.9521" y2="258.0432" gradientTransform="matrix(1.0001 0 0 -1.0001 0.0055 514.0717)">
	<stop  offset="0" style="stop-color:#00F2FE"/>
	<stop  offset="0.021" style="stop-color:#03EFFE"/>
	<stop  offset="0.293" style="stop-color:#24D2FE"/>
	<stop  offset="0.554" style="stop-color:#3CBDFE"/>
	<stop  offset="0.796" style="stop-color:#4AB0FE"/>
	<stop  offset="1" style="stop-color:#4FACFE"/>
</linearGradient>
<path style="fill:url(#SVGID_1_);" d="M158.003,512c-15.367,0-30.732-5.85-42.431-17.547
	c-11.334-11.334-17.576-26.403-17.576-42.431V59.978c0-16.028,6.242-31.097,17.576-42.431c23.397-23.397,61.466-23.397,84.862,0
	l196.022,196.022c23.397,23.397,23.397,61.465,0,84.862L269.725,425.161c-7.812,7.812-20.476,7.812-28.287,0
	c-7.811-7.812-7.812-20.476,0-28.287l126.73-126.73c7.799-7.799,7.799-20.488,0-28.287L172.146,45.835
	c-7.799-7.799-20.488-7.799-28.287,0C140.082,49.613,138,54.636,138,59.978v392.044c0,5.343,2.081,10.365,5.859,14.144
	c7.799,7.799,20.488,7.799,28.287,0c7.812-7.812,20.476-7.812,28.287,0c7.811,7.812,7.812,20.476,0,28.287
	C188.735,506.15,173.368,512,158.003,512z"/>
<g>
</g>
<g>
</g>
<g>
</g>
<g>
</g>
<g>
</g>
<g>
</g>
<g>
</g>
<g>
</g>
<g>
</g>
<g>
</g>
<g>
</g>
<g>
</g>
<g>
</g>
<g>
</g>
<g>
</g>
</svg>
