<?xml version="1.0" encoding="iso-8859-1"?>
<!-- Generator: Adobe Illustrator 19.0.0, SVG Export Plug-In . SVG Version: 6.00 Build 0)  -->
<svg version="1.1" id="Capa_1" xmlns="http://www.w3.org/2000/svg" xmlns:xlink="http://www.w3.org/1999/xlink" x="0px" y="0px"
	 viewBox="0 0 512 512" style="enable-background:new 0 0 512 512;" xml:space="preserve">
<linearGradient id="SVGID_1_" gradientUnits="userSpaceOnUse" x1="97.98" y1="258.0447" x2="413.9525" y2="258.0447" gradientTransform="matrix(1.0001 0 0 -1.0001 0.0055 514.0737)">
	<stop  offset="0" style="stop-color:#00F2FE"/>
	<stop  offset="0.021" style="stop-color:#03EFFE"/>
	<stop  offset="0.293" style="stop-color:#24D2FE"/>
	<stop  offset="0.554" style="stop-color:#3CBDFE"/>
	<stop  offset="0.796" style="stop-color:#4AB0FE"/>
	<stop  offset="1" style="stop-color:#4FACFE"/>
</linearGradient>
<path style="fill:url(#SVGID_1_);" d="M353.996,512c-15.367,0-30.732-5.85-42.431-17.547L115.544,298.432
	c-23.397-23.397-23.397-61.465,0-84.862L311.566,17.547c23.397-23.397,61.466-23.397,84.862,0
	c11.334,11.334,17.576,26.403,17.576,42.431v292.033c0,11.047-8.955,20.002-20.002,20.002c-11.047,0-20.002-8.955-20.002-20.002
	V59.978c0-5.343-2.081-10.365-5.859-14.144c-7.799-7.799-20.488-7.799-28.287,0L143.832,241.856c-7.799,7.799-7.799,20.488,0,28.287
	l196.022,196.022c7.799,7.799,20.488,7.799,28.287,0c3.777-3.778,5.859-8.801,5.859-14.144c0-11.047,8.955-20.002,20.002-20.002
	c11.047,0,20.002,8.955,20.002,20.002c0,16.028-6.242,31.097-17.576,42.431C384.73,506.151,369.363,512,353.996,512z"/>
<g>
</g>
<g>
</g>
<g>
</g>
<g>
</g>
<g>
</g>
<g>
</g>
<g>
</g>
<g>
</g>
<g>
</g>
<g>
</g>
<g>
</g>
<g>
</g>
<g>
</g>
<g>
</g>
<g>
</g>
</svg>
